<svg width="42" height="17" viewBox="0 0 42 17" fill="none" xmlns="http://www.w3.org/2000/svg">
<path fill-rule="evenodd" clip-rule="evenodd" d="M8.29763 2.20967C7.82858 2.76684 7.07809 3.2063 6.3276 3.14352C6.23379 2.39017 6.60122 1.58972 7.03119 1.09533C7.50024 0.522466 8.32108 0.114398 8.98558 0.0830078C9.06375 0.867755 8.75887 1.63681 8.29763 2.20967ZM8.97715 3.29268C8.31599 3.25448 7.71271 3.49228 7.22542 3.68436C6.91184 3.80796 6.64629 3.91263 6.44426 3.91263C6.21755 3.91263 5.94104 3.80236 5.63059 3.67856C5.22379 3.51633 4.7587 3.33086 4.27098 3.33977C3.15307 3.35546 2.11334 3.99111 1.54265 5.00343C0.37002 7.02808 1.23777 10.0258 2.37132 11.6738C2.92636 12.4899 3.59085 13.3845 4.46642 13.3531C4.85162 13.3386 5.12871 13.2205 5.41547 13.0984C5.7456 12.9578 6.08856 12.8117 6.62407 12.8117C7.14101 12.8117 7.46897 12.9539 7.78379 13.0905C8.08313 13.2204 8.3706 13.3451 8.79735 13.3375C9.70419 13.3218 10.2749 12.5213 10.8299 11.7052C11.4289 10.8292 11.6921 9.97438 11.7321 9.84464L11.7368 9.82963C11.7358 9.82867 11.7284 9.82529 11.7155 9.81933L11.7154 9.81928L11.7153 9.81927C11.5151 9.72725 9.98466 9.02393 9.96999 7.13794C9.95525 5.55493 11.1839 4.75288 11.3773 4.62663C11.3891 4.61894 11.397 4.61376 11.4006 4.61106C10.6188 3.44963 9.3993 3.32407 8.97715 3.29268ZM15.2551 13.2515V1.01729H19.8284C22.1893 1.01729 23.8388 2.64956 23.8388 5.0352C23.8388 7.42083 22.158 9.0688 19.7658 9.0688H17.147V13.2515H15.2551ZM17.1466 2.61736H19.3277C20.9694 2.61736 21.9075 3.49628 21.9075 5.04223C21.9075 6.58819 20.9694 7.47495 19.3199 7.47495H17.1466V2.61736ZM30.0848 11.7835C29.5845 12.7409 28.4822 13.3452 27.2939 13.3452C25.535 13.3452 24.3076 12.2936 24.3076 10.7084C24.3076 9.13894 25.4959 8.23648 27.6926 8.10307L30.0535 7.96182V7.28694C30.0535 6.29031 29.4047 5.74883 28.2477 5.74883C27.2939 5.74883 26.5982 6.24322 26.4574 6.99658H24.7532C24.8079 5.41139 26.2933 4.25781 28.3024 4.25781C30.4679 4.25781 31.875 5.3957 31.875 7.16138V13.251H30.1239V11.7835H30.0848ZM27.8017 11.8938C26.7932 11.8938 26.1522 11.4073 26.1522 10.6618C26.1522 9.89272 26.7698 9.44542 27.9502 9.37479L30.0531 9.24138V9.93196C30.0531 11.0777 29.0838 11.8938 27.8017 11.8938ZM37.6828 13.7299C36.9245 15.8722 36.0567 16.5785 34.2118 16.5785C34.0711 16.5785 33.602 16.5628 33.4926 16.5314V15.0639C33.6099 15.0796 33.8991 15.0953 34.0476 15.0953C34.8841 15.0953 35.3532 14.7422 35.6424 13.824L35.8144 13.2826L32.6092 4.37569H34.587L36.815 11.6032H36.8541L39.0821 4.37569H41.0053L37.6828 13.7299Z" fill="black"/>
</svg>
