<svg viewBox="0 0 552 451" fill="black" xmlns="http://www.w3.org/2000/svg">
    <path d="M405.995 0.0101485C411.929 0.1616 427.756 0.811912 453.479 1.9611C479.201 3.11029 499.068 3.79633 513.08 4.01923C513.554 4.04816 513.853 4.01369 513.978 3.91582C514.103 3.81795 514.346 3.72731 514.708 3.6439C515.069 3.5605 515.79 3.44625 516.868 3.30113C517.947 3.15602 519.447 2.93113 521.367 2.62644C534.562 0.689381 543.847 4.31601 549.222 13.5064C552.872 19.8484 552.726 26.064 548.784 32.1533C547.181 35.0094 544.644 37.5974 541.172 39.9174L535.965 43.3973C520.483 63.1298 506.273 87.2653 493.337 115.804C491.657 119.922 488.505 122.842 483.881 124.564C479.258 126.286 474.621 126.319 469.968 124.663C465.316 123.008 461.989 120.114 459.985 115.983C457.982 111.851 457.939 107.734 459.857 103.631C467.303 86.9949 475.139 71.7541 483.363 57.9084C404.043 91.2546 326.346 138.731 250.272 200.339C232.746 214.671 218.008 227.17 206.057 237.834C194.106 248.498 183.367 259.763 173.838 271.63C170.775 275.03 33.5157 476.978 161.873 277.704C12.1219 472.501 26.0728 458.558 135.147 290.397C134.957 290.095 -34.32 510.531 108.827 307.656C108.027 303.282 -2.40783 454.232 0.43106 450.607C7.87055 441.777 81.7723 304.037 170.336 224.416C180.202 214.785 188.902 206.718 196.435 200.215L225.347 176.661C301.146 115.669 377.533 68.2187 454.511 34.3074C429.381 33.1943 413.021 32.5115 405.429 32.2588C400.206 32.1507 395.912 30.4642 392.548 27.1992C389.184 23.9341 387.523 20.0347 387.565 15.5008C387.608 10.9668 389.443 7.22818 393.072 4.28481C396.701 1.34144 401.008 -0.0834373 405.995 0.0101485Z" />
</svg>