<svg width="22" height="20" viewBox="0 0 22 20" fill="none" xmlns="http://www.w3.org/2000/svg">
<path d="M19.668 2.33366H16.2338L14.8905 0.871159C14.4896 0.426992 13.9046 0.166992 13.298 0.166992H8.70464C8.09797 0.166992 7.51297 0.426992 7.1013 0.871159L5.7688 2.33366H2.33464C1.14297 2.33366 0.167969 3.30866 0.167969 4.50033V17.5003C0.167969 18.692 1.14297 19.667 2.33464 19.667H19.668C20.8596 19.667 21.8346 18.692 21.8346 17.5003V4.50033C21.8346 3.30866 20.8596 2.33366 19.668 2.33366ZM11.0013 16.417C8.0113 16.417 5.58464 13.9903 5.58464 11.0003C5.58464 8.01033 8.0113 5.58366 11.0013 5.58366C13.9913 5.58366 16.418 8.01033 16.418 11.0003C16.418 13.9903 13.9913 16.417 11.0013 16.417Z" fill="#2B2824"/>
</svg>
