<svg viewBox="0 0 38 38" fill="black" xmlns="http://www.w3.org/2000/svg">
    <path d="M36.9873 20.2402C36.6545 16.8935 35.1593 13.7383 32.777 11.3558C30.741 9.31996 28.2491 8.01166 25.627 7.42993V5.59085C26.6979 5.32442 27.494 4.35501 27.494 3.20277C27.494 1.84576 26.39 0.741791 25.033 0.741791H19.8215C18.4645 0.741791 17.3605 1.84576 17.3605 3.20277C17.3605 4.35494 18.1566 5.32434 19.2275 5.59085V7.43507C16.6134 8.01926 14.1297 9.32575 12.0996 11.3559C11.6553 11.8002 11.2456 12.2663 10.8706 12.7506C10.8524 12.7493 10.8343 12.7479 10.8157 12.7479H5.65773C5.25804 12.7479 4.93392 13.0719 4.93392 13.4717C4.93392 13.8715 5.25804 14.1955 5.65773 14.1955H9.88569C9.35499 15.084 8.92707 16.0171 8.60135 16.9776H0.723694C0.324003 16.9776 -0.00012207 17.3016 -0.00012207 17.7014C-0.00012207 18.1012 0.324003 18.4252 0.723694 18.4252H8.19232C7.98372 19.3409 7.864 20.2728 7.83309 21.2073H4.6323C4.23261 21.2073 3.90849 21.5314 3.90849 21.9312C3.90849 22.3309 4.23261 22.655 4.6323 22.655H7.85618C7.91727 23.5919 8.0679 24.5239 8.30813 25.4371H3.61896C3.21927 25.4371 2.89514 25.7612 2.89514 26.1609C2.89514 26.5607 3.21927 26.8847 3.61896 26.8847H8.77007C9.48014 28.7631 10.5898 30.5236 12.0996 32.0334C14.4842 34.4181 17.6427 35.9136 20.9929 36.2446C21.4711 36.2918 21.9496 36.3152 22.4275 36.3152C25.252 36.3152 28.0405 35.4978 30.4067 33.9569C30.7417 33.7388 30.8364 33.2904 30.6183 32.9554C30.4001 32.6204 29.9517 32.5257 29.6167 32.7438C24.4373 36.1166 17.5007 35.3873 13.1232 31.0098C7.98683 25.8734 7.98683 17.516 13.1232 12.3796C18.2595 7.24333 26.6169 7.24333 31.7533 12.3796C36.1251 16.7515 36.8583 23.6821 33.4967 28.8589C33.2789 29.1942 33.3743 29.6425 33.7095 29.8602C34.0449 30.0779 34.4931 29.9826 34.7107 29.6473C36.5068 26.8813 37.3153 23.5405 36.9873 20.2402ZM18.8082 3.20284C18.8082 2.64405 19.2627 2.1895 19.8215 2.1895H25.033C25.5918 2.1895 26.0463 2.64405 26.0463 3.20284C26.0463 3.76163 25.5918 4.21618 25.033 4.21618H24.9031H19.9513H19.8215C19.2627 4.21618 18.8082 3.76155 18.8082 3.20284ZM20.6751 7.18622V5.66381H24.1793V7.18361C23.0157 7.04522 21.8385 7.04609 20.6751 7.18622Z" />
    <path d="M32.2657 30.7974C32.0746 30.7974 31.8886 30.8748 31.754 31.0095C31.6187 31.1441 31.5419 31.3308 31.5419 31.5212C31.5419 31.7116 31.6187 31.8983 31.754 32.0329C31.8886 32.1683 32.0747 32.245 32.2657 32.245C32.456 32.245 32.6421 32.1683 32.7774 32.0329C32.912 31.8983 32.9895 31.7116 32.9895 31.5212C32.9895 31.3308 32.9121 31.1441 32.7774 31.0095C32.6421 30.8748 32.456 30.7974 32.2657 30.7974Z" />
    <path d="M22.4382 10.4666C16.2468 10.4666 11.2097 15.5037 11.2097 21.6951C11.2097 27.8866 16.2468 32.9236 22.4382 32.9236C28.6296 32.9236 33.6667 27.8866 33.6667 21.6951C33.6667 15.5037 28.6296 10.4666 22.4382 10.4666ZM22.4382 31.476C17.045 31.476 12.6573 27.0883 12.6573 21.6951C12.6573 16.3019 17.045 11.9142 22.4382 11.9142C27.8314 11.9142 32.2191 16.3019 32.2191 21.6951C32.2191 27.0883 27.8314 31.476 22.4382 31.476Z" />
    <path d="M27.017 16.0927L23.4319 19.6777C23.1321 19.5294 22.7949 19.4457 22.4384 19.4457C22.0819 19.4457 21.7447 19.5294 21.4449 19.6777L19.8404 18.0732C19.5577 17.7905 19.0995 17.7905 18.8167 18.0732C18.5341 18.3558 18.5341 18.8141 18.8167 19.0968L20.4212 20.7013C20.2729 21.0011 20.1892 21.3383 20.1892 21.6948C20.1892 22.935 21.1982 23.944 22.4384 23.944C23.6787 23.944 24.6876 22.935 24.6876 21.6948C24.6876 21.3383 24.6039 21.0011 24.4556 20.7013L27.9354 17.2215L28.0406 17.1163C28.3233 16.8336 28.3233 16.3753 28.0406 16.0927C27.758 15.81 27.2998 15.81 27.017 16.0927ZM22.4384 22.4964C21.9964 22.4964 21.6369 22.1368 21.6369 21.6949C21.6369 21.2529 21.9964 20.8933 22.4384 20.8933C22.8804 20.8933 23.24 21.2529 23.24 21.6949C23.24 22.1368 22.8804 22.4964 22.4384 22.4964Z" />
    <path d="M30.1771 20.9799H29.5065C29.1068 20.9799 28.7827 21.3039 28.7827 21.7037C28.7827 22.1035 29.1068 22.4275 29.5065 22.4275H30.1771C30.5768 22.4275 30.9009 22.1035 30.9009 21.7037C30.9009 21.3039 30.5768 20.9799 30.1771 20.9799Z" />
    <path d="M15.3694 20.9627H14.6989C14.2992 20.9627 13.9751 21.2868 13.9751 21.6865C13.9751 22.0863 14.2992 22.4103 14.6989 22.4103H15.3694C15.7691 22.4103 16.0932 22.0863 16.0932 21.6865C16.0932 21.2868 15.7691 20.9627 15.3694 20.9627Z" />
    <path d="M22.4467 15.3506C22.8464 15.3506 23.1705 15.0265 23.1705 14.6268V13.9563C23.1705 13.5565 22.8464 13.2325 22.4467 13.2325C22.047 13.2325 21.7229 13.5565 21.7229 13.9563V14.6268C21.7229 15.0265 22.047 15.3506 22.4467 15.3506Z" />
    <path d="M22.4291 28.0388C22.0294 28.0388 21.7053 28.3628 21.7053 28.7626V29.4331C21.7053 29.8329 22.0294 30.1569 22.4291 30.1569C22.8288 30.1569 23.1529 29.8329 23.1529 29.4331V28.7626C23.1529 28.3628 22.8288 28.0388 22.4291 28.0388Z" />
    <path d="M0.723561 25.4367C0.5332 25.4367 0.346459 25.5142 0.211831 25.6488C0.077203 25.7834 -0.000244141 25.9702 -0.000244141 26.1605C-0.000244141 26.3516 0.0771306 26.5376 0.211831 26.6722C0.346531 26.8069 0.5332 26.8843 0.723561 26.8843C0.913922 26.8843 1.10066 26.8069 1.23522 26.6722C1.36985 26.5376 1.44737 26.3509 1.44737 26.1605C1.44737 25.9702 1.36992 25.7834 1.23522 25.6488C1.10066 25.5142 0.913922 25.4367 0.723561 25.4367Z" />
</svg>