<svg width="221" height="185" viewBox="0 0 221 185" fill="none" xmlns="http://www.w3.org/2000/svg">
<path d="M9.69961 7.4H8.29961V6C8.29961 5.4 7.89961 5 7.39961 5C6.89961 5 6.39961 5.5 6.39961 6V7.4H4.99961C4.49961 7.4 4.09961 7.8 4.09961 8.3C4.09961 8.8 4.49961 9.2 4.99961 9.2H6.39961V10.6C6.39961 11.1 6.79961 11.5 7.29961 11.5C7.79961 11.5 8.19961 11.1 8.19961 10.6V9.3H9.59961C10.0996 9.3 10.4996 8.9 10.4996 8.4C10.4996 7.9 10.1996 7.4 9.69961 7.4Z" fill="#A9A5AD"/>
<path d="M28.5 7.39961H27.1V5.99961C27.1 5.49961 26.7 5.09961 26.2 5.09961C25.7 5.09961 25.3 5.49961 25.3 5.99961V7.39961H23.9C23.4 7.39961 23 7.79961 23 8.29961C23 8.79961 23.4 9.19961 23.9 9.19961H25.3V10.5996C25.3 11.0996 25.7 11.4996 26.2 11.4996C26.7 11.4996 27.1 11.0996 27.1 10.5996V9.29961H28.5C29 9.29961 29.4 8.89961 29.4 8.39961C29.5 7.79961 29.1 7.39961 28.5 7.39961C28.6 7.39961 28.6 7.39961 28.5 7.39961Z" fill="#A9A5AD"/>
<path d="M47.0996 7.39961H45.6996V5.99961C45.6996 5.49961 45.2996 5.09961 44.7996 5.09961C44.2996 5.09961 43.8996 5.49961 43.8996 5.99961V7.39961H42.4996C41.9996 7.39961 41.5996 7.79961 41.5996 8.29961C41.5996 8.79961 41.9996 9.19961 42.4996 9.19961H43.8996V10.5996C43.8996 11.0996 44.2996 11.4996 44.7996 11.4996C45.2996 11.4996 45.6996 11.0996 45.6996 10.5996V9.29961H47.0996C47.5996 9.29961 47.9996 8.89961 47.9996 8.39961C47.9996 7.79961 47.5996 7.39961 47.0996 7.39961Z" fill="#A9A5AD"/>
<path d="M65.8998 7.4H64.4998V6C64.4998 5.4 63.9998 5 63.4998 5C62.9998 5 62.5998 5.5 62.5998 6V7.4H61.1998C60.6998 7.4 60.2998 7.8 60.2998 8.3C60.2998 8.8 60.6998 9.2 61.1998 9.2H62.5998V10.6C62.5998 11.1 62.9998 11.5 63.4998 11.5C63.9998 11.5 64.3998 11.1 64.3998 10.6V9.3H65.7998C66.2998 9.3 66.6998 8.9 66.6998 8.4C66.7998 7.8 66.3998 7.4 65.8998 7.4Z" fill="#A9A5AD"/>
<path d="M84.5 7.39961H83.1V5.99961C83.1 5.49961 82.7 5.09961 82.2 5.09961C81.7 5.09961 81.3 5.49961 81.3 5.99961V7.39961H79.9C79.4 7.39961 79 7.79961 79 8.29961C79 8.79961 79.4 9.19961 79.9 9.19961H81.3V10.5996C81.3 11.0996 81.7 11.4996 82.2 11.4996C82.7 11.4996 83.1 11.0996 83.1 10.5996V9.29961H84.5C85 9.29961 85.4 8.89961 85.4 8.39961C85.4 7.79961 85 7.39961 84.5 7.39961Z" fill="#A9A5AD"/>
<path d="M103.3 7.39961H101.9V5.99961C101.9 5.49961 101.5 5.09961 101 5.09961C100.5 5.09961 100.1 5.49961 100.1 5.99961V7.39961H98.6998C98.1998 7.39961 97.7998 7.79961 97.7998 8.29961C97.7998 8.79961 98.1998 9.19961 98.6998 9.19961H100.1V10.5996C100.1 11.0996 100.5 11.4996 101 11.4996C101.5 11.4996 101.9 11.0996 101.9 10.5996V9.29961H103.3C103.8 9.29961 104.2 8.89961 104.2 8.39961C104.3 7.79961 103.9 7.39961 103.3 7.39961Z" fill="#A9A5AD"/>
<path d="M121.8 7.39961H120.4V5.99961C120.4 5.49961 120 5.09961 119.5 5.09961C119 5.09961 118.6 5.49961 118.6 5.99961V7.39961H117.2C116.7 7.39961 116.3 7.79961 116.3 8.29961C116.3 8.79961 116.7 9.19961 117.2 9.19961H118.6V10.5996C118.6 11.0996 119 11.4996 119.5 11.4996C120 11.4996 120.4 11.0996 120.4 10.5996V9.29961H121.8C122.3 9.29961 122.7 8.89961 122.7 8.39961C122.8 7.79961 122.4 7.39961 121.8 7.39961Z" fill="#A9A5AD"/>
<path d="M140.7 7.39961H139.3V5.99961C139.3 5.49961 138.9 5.09961 138.4 5.09961C137.9 5.09961 137.5 5.49961 137.5 5.99961V7.39961H136C135.5 7.39961 135.1 7.79961 135.1 8.29961C135.1 8.79961 135.5 9.19961 136 9.19961H137.4V10.5996C137.4 11.0996 137.8 11.4996 138.3 11.4996C138.8 11.4996 139.2 11.0996 139.2 10.5996V9.29961H140.6C141.1 9.29961 141.5 8.89961 141.5 8.39961C141.6 7.79961 141.2 7.39961 140.7 7.39961Z" fill="#A9A5AD"/>
<path d="M159.5 7.39961H158.1V5.99961C158.1 5.49961 157.7 5.09961 157.2 5.09961C156.7 5.09961 156.3 5.49961 156.3 5.99961V7.39961H154.9C154.4 7.39961 154 7.79961 154 8.29961C154 8.79961 154.4 9.19961 154.9 9.19961H156.3V10.5996C156.3 11.0996 156.7 11.4996 157.2 11.4996C157.7 11.4996 158.1 11.0996 158.1 10.5996V9.29961H159.5C160 9.29961 160.4 8.89961 160.4 8.39961C160.4 7.79961 160 7.39961 159.5 7.39961Z" fill="#A9A5AD"/>
<path d="M178.3 7.39961H176.9V5.99961C176.9 5.49961 176.5 5.09961 176 5.09961C175.5 5.09961 175.1 5.49961 175.1 5.99961V7.39961H173.7C173.2 7.39961 172.8 7.79961 172.8 8.29961C172.8 8.79961 173.2 9.19961 173.7 9.19961H175.1V10.5996C175.1 11.0996 175.5 11.4996 176 11.4996C176.5 11.4996 176.9 11.0996 176.9 10.5996V9.29961H178.3C178.8 9.29961 179.2 8.89961 179.2 8.39961C179.3 7.79961 178.9 7.39961 178.3 7.39961Z" fill="#A9A5AD"/>
<path d="M196.8 7.39961H195.4V5.99961C195.4 5.49961 195 5.09961 194.5 5.09961C194 5.09961 193.6 5.49961 193.6 5.99961V7.39961H192.2C191.7 7.39961 191.3 7.79961 191.3 8.29961C191.3 8.79961 191.7 9.19961 192.2 9.19961H193.6V10.5996C193.6 11.0996 194 11.4996 194.5 11.4996C195 11.4996 195.4 11.0996 195.4 10.5996V9.29961H196.8C197.3 9.29961 197.7 8.89961 197.7 8.39961C197.8 7.79961 197.4 7.39961 196.8 7.39961Z" fill="#A9A5AD"/>
<path d="M211 9.19961H212.4V10.5996C212.4 11.0996 212.8 11.4996 213.3 11.4996C213.8 11.4996 214.2 11.0996 214.2 10.5996V9.29961H215.6C216.1 9.29961 216.5 8.89961 216.5 8.39961C216.5 7.89961 216.1 7.49961 215.6 7.49961H214.2V5.99961C214.2 5.49961 213.8 5.09961 213.3 5.09961C212.8 5.09961 212.4 5.49961 212.4 5.99961V7.39961H211C210.5 7.39961 210.1 7.79961 210.1 8.29961C210 8.79961 210.4 9.29961 211 9.19961C211 9.29961 211 9.29961 211 9.19961Z" fill="#A9A5AD"/>
<path d="M9.69961 26.0002H8.29961V24.6002C8.29961 24.1002 7.89961 23.7002 7.39961 23.7002C6.89961 23.7002 6.49961 24.1002 6.49961 24.6002V26.0002H4.99961C4.49961 26.0002 4.09961 26.4002 4.09961 26.9002C4.09961 27.4002 4.49961 27.8002 4.99961 27.8002H6.39961V29.2002C6.39961 29.7002 6.79961 30.1002 7.29961 30.1002C7.79961 30.1002 8.19961 29.7002 8.19961 29.2002V27.8002H9.59961C10.0996 27.8002 10.4996 27.4002 10.4996 26.9002C10.4996 26.4002 10.1996 26.0002 9.69961 26.0002Z" fill="#A9A5AD"/>
<path d="M28.5 26.0002H27.1V24.6002C27.1 24.1002 26.7 23.7002 26.2 23.7002C25.7 23.7002 25.3 24.1002 25.3 24.6002V26.0002H23.9C23.4 26.0002 23 26.4002 23 26.9002C23 27.4002 23.4 27.8002 23.9 27.8002H25.3V29.2002C25.3 29.7002 25.7 30.1002 26.2 30.1002C26.7 30.1002 27.1 29.7002 27.1 29.2002V27.8002H28.5C29 27.8002 29.4 27.4002 29.4 26.9002C29.5 26.5002 29.1 26.0002 28.5 26.0002C28.6 26.0002 28.6 26.0002 28.5 26.0002Z" fill="#A9A5AD"/>
<path d="M47.0996 26.0002H45.6996V24.6002C45.6996 24.1002 45.2996 23.7002 44.7996 23.7002C44.2996 23.7002 43.8996 24.1002 43.8996 24.6002V26.0002H42.4996C41.9996 26.0002 41.5996 26.4002 41.5996 26.9002C41.5996 27.4002 41.9996 27.8002 42.4996 27.8002H43.8996V29.2002C43.8996 29.7002 44.2996 30.1002 44.7996 30.1002C45.2996 30.1002 45.6996 29.7002 45.6996 29.2002V27.8002H47.0996C47.5996 27.8002 47.9996 27.4002 47.9996 26.9002C47.9996 26.5002 47.5996 26.0002 47.0996 26.0002Z" fill="#A9A5AD"/>
<path d="M65.9004 26.0002H64.5004V24.6002C64.5004 24.1002 64.1004 23.7002 63.6004 23.7002C63.1004 23.7002 62.7004 24.1002 62.7004 24.6002V26.0002H61.3004C60.8004 26.0002 60.4004 26.4002 60.4004 26.9002C60.4004 27.4002 60.8004 27.8002 61.3004 27.8002H62.7004V29.2002C62.7004 29.7002 63.1004 30.1002 63.6004 30.1002C64.1004 30.1002 64.5004 29.7002 64.5004 29.2002V27.8002H65.9004C66.4004 27.8002 66.8004 27.4002 66.8004 26.9002C66.8004 26.4002 66.4004 26.0002 65.9004 26.0002Z" fill="#A9A5AD"/>
<path d="M84.5 26.0002H83.1V24.6002C83.1 24.1002 82.7 23.7002 82.2 23.7002C81.7 23.7002 81.3 24.1002 81.3 24.6002V26.0002H79.9C79.4 26.0002 79 26.4002 79 26.9002C79 27.4002 79.4 27.8002 79.9 27.8002H81.3V29.2002C81.3 29.7002 81.7 30.1002 82.2 30.1002C82.7 30.1002 83.1 29.7002 83.1 29.2002V27.8002H84.5C85 27.8002 85.4 27.4002 85.4 26.9002C85.4 26.4002 85 26.0002 84.5 26.0002Z" fill="#A9A5AD"/>
<path d="M103.3 26.0002H101.9V24.6002C101.9 24.1002 101.5 23.7002 101 23.7002C100.5 23.7002 100.1 24.1002 100.1 24.6002V26.0002H98.6998C98.1998 26.0002 97.7998 26.4002 97.7998 26.9002C97.7998 27.4002 98.1998 27.8002 98.6998 27.8002H100.1V29.2002C100.1 29.7002 100.5 30.1002 101 30.1002C101.5 30.1002 101.9 29.7002 101.9 29.2002V27.8002H103.3C103.8 27.8002 104.2 27.4002 104.2 26.9002C104.3 26.4002 103.9 26.0002 103.3 26.0002Z" fill="#A9A5AD"/>
<path d="M121.8 26.0002H120.4V24.6002C120.4 24.1002 120 23.7002 119.5 23.7002C119 23.7002 118.6 24.1002 118.6 24.6002V26.0002H117.2C116.7 26.0002 116.3 26.4002 116.3 26.9002C116.3 27.4002 116.7 27.8002 117.2 27.8002H118.6V29.2002C118.6 29.7002 119 30.1002 119.5 30.1002C120 30.1002 120.4 29.7002 120.4 29.2002V27.8002H121.8C122.3 27.8002 122.7 27.4002 122.7 26.9002C122.8 26.5002 122.4 26.0002 121.8 26.0002Z" fill="#A9A5AD"/>
<path d="M140.7 26.0002H139.3V24.6002C139.3 24.1002 138.9 23.7002 138.4 23.7002C137.9 23.7002 137.5 24.1002 137.5 24.6002V26.0002H136C135.5 26.0002 135.1 26.4002 135.1 26.9002C135.1 27.4002 135.5 27.8002 136 27.8002H137.4V29.2002C137.4 29.7002 137.8 30.1002 138.3 30.1002C138.8 30.1002 139.2 29.7002 139.2 29.2002V27.8002H140.6C141.1 27.8002 141.5 27.4002 141.5 26.9002C141.6 26.5002 141.2 26.0002 140.7 26.0002Z" fill="#A9A5AD"/>
<path d="M159.5 26.0002H158.1V24.6002C158.1 24.1002 157.7 23.7002 157.2 23.7002C156.7 23.7002 156.3 24.1002 156.3 24.6002V26.0002H154.9C154.4 26.0002 154 26.4002 154 26.9002C154 27.4002 154.4 27.8002 154.9 27.8002H156.3V29.2002C156.3 29.7002 156.7 30.1002 157.2 30.1002C157.7 30.1002 158.1 29.7002 158.1 29.2002V27.8002H159.5C160 27.8002 160.4 27.4002 160.4 26.9002C160.4 26.4002 160 26.0002 159.5 26.0002Z" fill="#A9A5AD"/>
<path d="M178.3 26.0002H176.9V24.6002C176.9 24.1002 176.5 23.7002 176 23.7002C175.5 23.7002 175.1 24.1002 175.1 24.6002V26.0002H173.7C173.2 26.0002 172.8 26.4002 172.8 26.9002C172.8 27.4002 173.2 27.8002 173.7 27.8002H175.1V29.2002C175.1 29.7002 175.5 30.1002 176 30.1002C176.5 30.1002 176.9 29.7002 176.9 29.2002V27.8002H178.3C178.8 27.8002 179.2 27.4002 179.2 26.9002C179.3 26.4002 178.9 26.0002 178.3 26.0002Z" fill="#A9A5AD"/>
<path d="M196.8 26.0002H195.4V24.6002C195.4 24.1002 195 23.7002 194.5 23.7002C194 23.7002 193.6 24.1002 193.6 24.6002V26.0002H192.2C191.7 26.0002 191.3 26.4002 191.3 26.9002C191.3 27.4002 191.7 27.8002 192.2 27.8002H193.6V29.2002C193.6 29.7002 194 30.1002 194.5 30.1002C195 30.1002 195.4 29.7002 195.4 29.2002V27.8002H196.8C197.3 27.8002 197.7 27.4002 197.7 26.9002C197.8 26.4002 197.3 26.0002 196.8 26.0002Z" fill="#A9A5AD"/>
<path d="M215.7 26.0002H214.3V24.6002C214.3 24.1002 213.9 23.7002 213.4 23.7002C212.9 23.7002 212.5 24.1002 212.5 24.6002V26.0002H211C210.5 26.0002 210.1 26.4002 210.1 26.9002C210.1 27.4002 210.5 27.8002 211 27.8002H212.4V29.2002C212.4 29.7002 212.8 30.1002 213.3 30.1002C213.8 30.1002 214.2 29.7002 214.2 29.2002V27.8002H215.6C216.1 27.8002 216.5 27.4002 216.5 26.9002C216.6 26.4002 216.2 26.0002 215.7 26.0002Z" fill="#A9A5AD"/>
<path d="M9.69961 44.8H8.29961V43.4C8.29961 42.9 7.89961 42.5 7.39961 42.5C6.89961 42.5 6.49961 42.9 6.49961 43.4V44.8H4.99961C4.49961 44.8 4.09961 45.2 4.09961 45.7C4.09961 46.2 4.49961 46.6 4.99961 46.6H6.39961V48C6.39961 48.5 6.79961 48.9 7.29961 48.9C7.79961 48.9 8.19961 48.5 8.19961 48V46.6H9.59961C10.0996 46.6 10.4996 46.2 10.4996 45.7C10.4996 45.2 10.1996 44.8 9.69961 44.8Z" fill="#A9A5AD"/>
<path d="M28.5 44.8H27.1V43.4C27.1 42.9 26.7 42.5 26.2 42.5C25.7 42.5 25.3 42.9 25.3 43.4V44.8H23.9C23.4 44.8 23 45.2 23 45.7C23 46.2 23.4 46.6 23.9 46.6H25.3V48C25.3 48.5 25.7 48.9 26.2 48.9C26.7 48.9 27.1 48.5 27.1 48V46.6H28.5C29 46.6 29.4 46.2 29.4 45.7C29.5 45.2 29.1 44.8 28.5 44.8C28.6 44.8 28.6 44.8 28.5 44.8Z" fill="#A9A5AD"/>
<path d="M47.0996 44.8H45.6996V43.4C45.6996 42.9 45.2996 42.5 44.7996 42.5C44.2996 42.5 43.8996 42.9 43.8996 43.4V44.8H42.4996C41.9996 44.8 41.5996 45.2 41.5996 45.7C41.5996 46.2 41.9996 46.6 42.4996 46.6H43.8996V48C43.8996 48.5 44.2996 48.9 44.7996 48.9C45.2996 48.9 45.6996 48.5 45.6996 48V46.6H47.0996C47.5996 46.6 47.9996 46.2 47.9996 45.7C47.9996 45.2 47.5996 44.8 47.0996 44.8Z" fill="#A9A5AD"/>
<path d="M65.9004 44.8H64.5004V43.4C64.5004 42.9 64.1004 42.5 63.6004 42.5C63.1004 42.5 62.7004 42.9 62.7004 43.4V44.8H61.3004C60.8004 44.8 60.4004 45.2 60.4004 45.7C60.4004 46.2 60.8004 46.6 61.3004 46.6H62.7004V48C62.7004 48.5 63.1004 48.9 63.6004 48.9C64.1004 48.9 64.5004 48.5 64.5004 48V46.6H65.9004C66.4004 46.6 66.8004 46.2 66.8004 45.7C66.8004 45.2 66.4004 44.8 65.9004 44.8Z" fill="#A9A5AD"/>
<path d="M84.5 44.8H83.1V43.4C83.1 42.9 82.7 42.5 82.2 42.5C81.7 42.5 81.3 42.9 81.3 43.4V44.8H79.9C79.4 44.8 79 45.2 79 45.7C79 46.2 79.4 46.6 79.9 46.6H81.3V48C81.3 48.5 81.7 48.9 82.2 48.9C82.7 48.9 83.1 48.5 83.1 48V46.6H84.5C85 46.6 85.4 46.2 85.4 45.7C85.4 45.2 85 44.8 84.5 44.8Z" fill="#A9A5AD"/>
<path d="M103.3 44.8H101.9V43.4C101.9 42.9 101.5 42.5 101 42.5C100.5 42.5 100.1 42.9 100.1 43.4V44.8H98.6998C98.1998 44.8 97.7998 45.2 97.7998 45.7C97.7998 46.2 98.1998 46.6 98.6998 46.6H100.1V48C100.1 48.5 100.5 48.9 101 48.9C101.5 48.9 101.9 48.5 101.9 48V46.6H103.3C103.8 46.6 104.2 46.2 104.2 45.7C104.3 45.2 103.9 44.8 103.3 44.8Z" fill="#A9A5AD"/>
<path d="M121.8 44.8H120.4V43.4C120.4 42.9 120 42.5 119.5 42.5C119 42.5 118.6 42.9 118.6 43.4V44.8H117.2C116.7 44.8 116.3 45.2 116.3 45.7C116.3 46.2 116.7 46.6 117.2 46.6H118.6V48C118.6 48.5 119 48.9 119.5 48.9C120 48.9 120.4 48.5 120.4 48V46.6H121.8C122.3 46.6 122.7 46.2 122.7 45.7C122.8 45.2 122.4 44.8 121.8 44.8Z" fill="#A9A5AD"/>
<path d="M140.7 44.8H139.3V43.4C139.3 42.9 138.9 42.5 138.4 42.5C137.9 42.5 137.5 42.9 137.5 43.4V44.8H136C135.5 44.8 135.1 45.2 135.1 45.7C135.1 46.2 135.5 46.6 136 46.6H137.4V48C137.4 48.5 137.8 48.9 138.3 48.9C138.8 48.9 139.2 48.5 139.2 48V46.6H140.6C141.1 46.6 141.5 46.2 141.5 45.7C141.6 45.2 141.2 44.8 140.7 44.8Z" fill="#A9A5AD"/>
<path d="M159.5 44.8H158.1V43.4C158.1 42.9 157.7 42.5 157.2 42.5C156.7 42.5 156.3 42.9 156.3 43.4V44.8H154.9C154.4 44.8 154 45.2 154 45.7C154 46.2 154.4 46.6 154.9 46.6H156.3V48C156.3 48.5 156.7 48.9 157.2 48.9C157.7 48.9 158.1 48.5 158.1 48V46.6H159.5C160 46.6 160.4 46.2 160.4 45.7C160.4 45.2 160 44.8 159.5 44.8Z" fill="#A9A5AD"/>
<path d="M178.3 44.8H176.9V43.4C176.9 42.9 176.5 42.5 176 42.5C175.5 42.5 175.1 42.9 175.1 43.4V44.8H173.7C173.2 44.8 172.8 45.2 172.8 45.7C172.8 46.2 173.2 46.6 173.7 46.6H175.1V48C175.1 48.5 175.5 48.9 176 48.9C176.5 48.9 176.9 48.5 176.9 48V46.6H178.3C178.8 46.6 179.2 46.2 179.2 45.7C179.3 45.2 178.9 44.8 178.3 44.8C178.4 44.8 178.4 44.8 178.3 44.8Z" fill="#A9A5AD"/>
<path d="M196.8 44.8H195.4V43.4C195.4 42.9 195 42.5 194.5 42.5C194 42.5 193.6 42.9 193.6 43.4V44.8H192.2C191.7 44.8 191.3 45.2 191.3 45.7C191.3 46.2 191.7 46.6 192.2 46.6H193.6V48C193.6 48.5 194 48.9 194.5 48.9C195 48.9 195.4 48.5 195.4 48V46.6H196.8C197.3 46.6 197.7 46.2 197.7 45.7C197.8 45.2 197.3 44.8 196.8 44.8Z" fill="#A9A5AD"/>
<path d="M215.7 44.8H214.3V43.4C214.3 42.9 213.9 42.5 213.4 42.5C212.9 42.5 212.5 42.9 212.5 43.4V44.8H211C210.5 44.8 210.1 45.2 210.1 45.7C210.1 46.2 210.5 46.6 211 46.6H212.4V48C212.4 48.5 212.8 48.9 213.3 48.9C213.8 48.9 214.2 48.5 214.2 48V46.6H215.6C216.1 46.6 216.5 46.2 216.5 45.7C216.6 45.2 216.2 44.8 215.7 44.8Z" fill="#A9A5AD"/>
<path d="M9.69961 63.3996H8.29961V61.9996C8.29961 61.4996 7.89961 61.0996 7.39961 61.0996C6.89961 61.0996 6.39961 61.4996 6.39961 61.9996V63.3996H4.99961C4.49961 63.3996 4.09961 63.7996 4.09961 64.2996C4.09961 64.7996 4.49961 65.1996 4.99961 65.1996H6.39961V66.5996C6.39961 67.0996 6.79961 67.4996 7.29961 67.4996C7.79961 67.4996 8.19961 67.0996 8.19961 66.5996V65.1996H9.59961C10.0996 65.1996 10.4996 64.7996 10.4996 64.2996C10.5996 63.7996 10.1996 63.3996 9.69961 63.3996Z" fill="#A9A5AD"/>
<path d="M28.5 63.3996H27.1V61.9996C27.1 61.4996 26.7 61.0996 26.2 61.0996C25.7 61.0996 25.3 61.4996 25.3 61.9996V63.3996H23.9C23.4 63.3996 23 63.7996 23 64.2996C23 64.7996 23.4 65.1996 23.9 65.1996H25.3V66.5996C25.3 67.0996 25.7 67.4996 26.2 67.4996C26.7 67.4996 27.1 67.0996 27.1 66.5996V65.1996H28.5C29 65.1996 29.4 64.7996 29.4 64.2996C29.5 63.7996 29.1 63.3996 28.5 63.3996C28.6 63.3996 28.6 63.3996 28.5 63.3996Z" fill="#A9A5AD"/>
<path d="M47.0996 63.3996H45.6996V61.9996C45.6996 61.4996 45.2996 61.0996 44.7996 61.0996C44.2996 61.0996 43.8996 61.4996 43.8996 61.9996V63.3996H42.4996C41.9996 63.3996 41.5996 63.7996 41.5996 64.2996C41.5996 64.7996 41.9996 65.1996 42.4996 65.1996H43.8996V66.5996C43.8996 67.0996 44.2996 67.4996 44.7996 67.4996C45.2996 67.4996 45.6996 67.0996 45.6996 66.5996V65.1996H47.0996C47.5996 65.1996 47.9996 64.7996 47.9996 64.2996C47.9996 63.7996 47.5996 63.3996 47.0996 63.3996Z" fill="#A9A5AD"/>
<path d="M65.9004 63.3996H64.5004V61.9996C64.5004 61.4996 64.1004 61.0996 63.6004 61.0996C63.1004 61.0996 62.7004 61.4996 62.7004 61.9996V63.3996H61.3004C60.8004 63.3996 60.4004 63.7996 60.4004 64.2996C60.4004 64.7996 60.8004 65.1996 61.3004 65.1996H62.7004V66.5996C62.7004 67.0996 63.1004 67.4996 63.6004 67.4996C64.1004 67.4996 64.5004 67.0996 64.5004 66.5996V65.1996H65.9004C66.4004 65.1996 66.8004 64.7996 66.8004 64.2996C66.8004 63.7996 66.4004 63.3996 65.9004 63.3996Z" fill="#A9A5AD"/>
<path d="M84.5 63.3996H83.1V61.9996C83.1 61.4996 82.7 61.0996 82.2 61.0996C81.7 61.0996 81.3 61.4996 81.3 61.9996V63.3996H79.9C79.4 63.3996 79 63.7996 79 64.2996C79 64.7996 79.4 65.1996 79.9 65.1996H81.3V66.5996C81.3 67.0996 81.7 67.4996 82.2 67.4996C82.7 67.4996 83.1 67.0996 83.1 66.5996V65.1996H84.5C85 65.1996 85.4 64.7996 85.4 64.2996C85.4 63.7996 85 63.3996 84.5 63.3996Z" fill="#A9A5AD"/>
<path d="M103.3 63.3996H101.9V61.9996C101.9 61.4996 101.5 61.0996 101 61.0996C100.5 61.0996 100.1 61.4996 100.1 61.9996V63.3996H98.6998C98.1998 63.3996 97.7998 63.7996 97.7998 64.2996C97.7998 64.7996 98.1998 65.1996 98.6998 65.1996H100.1V66.5996C100.1 67.0996 100.5 67.4996 101 67.4996C101.5 67.4996 101.9 67.0996 101.9 66.5996V65.1996H103.3C103.8 65.1996 104.2 64.7996 104.2 64.2996C104.3 63.7996 103.9 63.3996 103.3 63.3996Z" fill="#A9A5AD"/>
<path d="M121.8 63.3996H120.4V61.9996C120.4 61.4996 120 61.0996 119.5 61.0996C119 61.0996 118.6 61.4996 118.6 61.9996V63.3996H117.2C116.7 63.3996 116.3 63.7996 116.3 64.2996C116.3 64.7996 116.7 65.1996 117.2 65.1996H118.6V66.5996C118.6 67.0996 119 67.4996 119.5 67.4996C120 67.4996 120.4 67.0996 120.4 66.5996V65.1996H121.8C122.3 65.1996 122.7 64.7996 122.7 64.2996C122.8 63.7996 122.4 63.3996 121.8 63.3996Z" fill="#A9A5AD"/>
<path d="M140.7 63.3996H139.3V61.9996C139.3 61.4996 138.9 61.0996 138.4 61.0996C137.9 61.0996 137.5 61.4996 137.5 61.9996V63.3996H136C135.5 63.3996 135.1 63.7996 135.1 64.2996C135.1 64.7996 135.5 65.1996 136 65.1996H137.4V66.5996C137.4 67.0996 137.8 67.4996 138.3 67.4996C138.8 67.4996 139.2 67.0996 139.2 66.5996V65.1996H140.6C141.1 65.1996 141.5 64.7996 141.5 64.2996C141.6 63.7996 141.2 63.3996 140.7 63.3996Z" fill="#A9A5AD"/>
<path d="M159.5 63.3996H158.1V61.9996C158.1 61.4996 157.7 61.0996 157.2 61.0996C156.7 61.0996 156.3 61.4996 156.3 61.9996V63.3996H154.9C154.4 63.3996 154 63.7996 154 64.2996C154 64.7996 154.4 65.1996 154.9 65.1996H156.3V66.5996C156.3 67.0996 156.7 67.4996 157.2 67.4996C157.7 67.4996 158.1 67.0996 158.1 66.5996V65.1996H159.5C160 65.1996 160.4 64.7996 160.4 64.2996C160.4 63.7996 160 63.3996 159.5 63.3996Z" fill="#A9A5AD"/>
<path d="M178.3 63.3996H176.9V61.9996C176.9 61.4996 176.5 61.0996 176 61.0996C175.5 61.0996 175.1 61.4996 175.1 61.9996V63.3996H173.7C173.2 63.3996 172.8 63.7996 172.8 64.2996C172.8 64.7996 173.2 65.1996 173.7 65.1996H175.1V66.5996C175.1 67.0996 175.5 67.4996 176 67.4996C176.5 67.4996 176.9 67.0996 176.9 66.5996V65.1996H178.3C178.8 65.1996 179.2 64.7996 179.2 64.2996C179.3 63.7996 178.9 63.3996 178.3 63.3996C178.4 63.3996 178.4 63.3996 178.3 63.3996Z" fill="#A9A5AD"/>
<path d="M196.8 63.3996H195.4V61.9996C195.4 61.4996 195 61.0996 194.5 61.0996C194 61.0996 193.6 61.4996 193.6 61.9996V63.3996H192.2C191.7 63.3996 191.3 63.7996 191.3 64.2996C191.3 64.7996 191.7 65.1996 192.2 65.1996H193.6V66.5996C193.6 67.0996 194 67.4996 194.5 67.4996C195 67.4996 195.4 67.0996 195.4 66.5996V65.1996H196.8C197.3 65.1996 197.7 64.7996 197.7 64.2996C197.8 63.7996 197.3 63.3996 196.8 63.3996Z" fill="#A9A5AD"/>
<path d="M215.7 63.3996H214.3V61.9996C214.3 61.4996 213.9 61.0996 213.4 61.0996C212.9 61.0996 212.5 61.4996 212.5 61.9996V63.3996H211C210.5 63.3996 210.1 63.7996 210.1 64.2996C210.1 64.7996 210.5 65.1996 211 65.1996H212.4V66.5996C212.4 67.0996 212.8 67.4996 213.3 67.4996C213.8 67.4996 214.2 67.0996 214.2 66.5996V65.1996H215.6C216.1 65.1996 216.5 64.7996 216.5 64.2996C216.6 63.7996 216.2 63.3996 215.7 63.3996Z" fill="#A9A5AD"/>
<path d="M9.69961 82.3H8.29961V80.9C8.29961 80.4 7.89961 80 7.39961 80C6.89961 80 6.49961 80.4 6.49961 80.9V82.3H4.99961C4.49961 82.3 4.09961 82.7 4.09961 83.2C4.09961 83.7 4.49961 84.1 4.99961 84.1H6.39961V85.5C6.39961 86 6.79961 86.4 7.29961 86.4C7.79961 86.4 8.19961 86 8.19961 85.5V84.1H9.59961C10.0996 84.1 10.4996 83.7 10.4996 83.2C10.4996 82.7 10.1996 82.3 9.69961 82.3Z" fill="#A9A5AD"/>
<path d="M28.5 82.3H27.1V80.9C27.1 80.4 26.7 80 26.2 80C25.7 80 25.3 80.4 25.3 80.9V82.3H23.9C23.4 82.3 23 82.7 23 83.2C23 83.7 23.4 84.1 23.9 84.1H25.3V85.5C25.3 86 25.7 86.4 26.2 86.4C26.7 86.4 27.1 86 27.1 85.5V84.1H28.5C29 84.1 29.4 83.7 29.4 83.2C29.5 82.7 29.1 82.3 28.5 82.3C28.6 82.3 28.6 82.3 28.5 82.3Z" fill="#A9A5AD"/>
<path d="M47.0996 82.3H45.6996V80.9C45.6996 80.4 45.2996 80 44.7996 80C44.2996 80 43.8996 80.4 43.8996 80.9V82.3H42.4996C41.9996 82.3 41.5996 82.7 41.5996 83.2C41.5996 83.7 41.9996 84.1 42.4996 84.1H43.8996V85.5C43.8996 86 44.2996 86.4 44.7996 86.4C45.2996 86.4 45.6996 86 45.6996 85.5V84.1H47.0996C47.5996 84.1 47.9996 83.7 47.9996 83.2C47.9996 82.7 47.5996 82.3 47.0996 82.3Z" fill="#A9A5AD"/>
<path d="M65.9004 82.3H64.5004V80.9C64.5004 80.4 64.1004 80 63.6004 80C63.1004 80 62.7004 80.4 62.7004 80.9V82.3H61.3004C60.8004 82.3 60.4004 82.7 60.4004 83.2C60.4004 83.7 60.8004 84.1 61.3004 84.1H62.7004V85.5C62.7004 86 63.1004 86.4 63.6004 86.4C64.1004 86.4 64.5004 86 64.5004 85.5V84.1H65.9004C66.4004 84.1 66.8004 83.7 66.8004 83.2C66.8004 82.7 66.4004 82.3 65.9004 82.3Z" fill="#A9A5AD"/>
<path d="M84.5 82.3H83.1V80.9C83.1 80.4 82.7 80 82.2 80C81.7 80 81.3 80.4 81.3 80.9V82.3H79.9C79.4 82.3 79 82.7 79 83.2C79 83.7 79.4 84.1 79.9 84.1H81.3V85.5C81.3 86 81.7 86.4 82.2 86.4C82.7 86.4 83.1 86 83.1 85.5V84.1H84.5C85 84.1 85.4 83.7 85.4 83.2C85.4 82.7 85 82.3 84.5 82.3Z" fill="#A9A5AD"/>
<path d="M103.3 82.3H101.9V80.9C101.9 80.4 101.5 80 101 80C100.5 80 100.1 80.4 100.1 80.9V82.3H98.6998C98.1998 82.3 97.7998 82.7 97.7998 83.2C97.7998 83.7 98.1998 84.1 98.6998 84.1H100.1V85.5C100.1 86 100.5 86.4 101 86.4C101.5 86.4 101.9 86 101.9 85.5V84.1H103.3C103.8 84.1 104.2 83.7 104.2 83.2C104.3 82.7 103.9 82.3 103.3 82.3Z" fill="#A9A5AD"/>
<path d="M121.8 82.3H120.4V80.9C120.4 80.4 120 80 119.5 80C119 80 118.6 80.4 118.6 80.9V82.3H117.2C116.7 82.3 116.3 82.7 116.3 83.2C116.3 83.7 116.7 84.1 117.2 84.1H118.6V85.5C118.6 86 119 86.4 119.5 86.4C120 86.4 120.4 86 120.4 85.5V84.1H121.8C122.3 84.1 122.7 83.7 122.7 83.2C122.8 82.7 122.4 82.3 121.8 82.3Z" fill="#A9A5AD"/>
<path d="M140.7 82.3H139.3V80.9C139.3 80.4 138.9 80 138.4 80C137.9 80 137.5 80.4 137.5 80.9V82.3H136C135.5 82.3 135.1 82.7 135.1 83.2C135.1 83.7 135.5 84.1 136 84.1H137.4V85.5C137.4 86 137.8 86.4 138.3 86.4C138.8 86.4 139.2 86 139.2 85.5V84.1H140.6C141.1 84.1 141.5 83.7 141.5 83.2C141.6 82.7 141.2 82.3 140.7 82.3Z" fill="#A9A5AD"/>
<path d="M159.5 82.3H158.1V80.9C158.1 80.4 157.7 80 157.2 80C156.7 80 156.3 80.4 156.3 80.9V82.3H154.9C154.4 82.3 154 82.7 154 83.2C154 83.7 154.4 84.1 154.9 84.1H156.3V85.5C156.3 86 156.7 86.4 157.2 86.4C157.7 86.4 158.1 86 158.1 85.5V84.1H159.5C160 84.1 160.4 83.7 160.4 83.2C160.4 82.7 160 82.3 159.5 82.3Z" fill="#A9A5AD"/>
<path d="M178.3 82.3H176.9V80.9C176.9 80.4 176.5 80 176 80C175.5 80 175.1 80.4 175.1 80.9V82.3H173.7C173.2 82.3 172.8 82.7 172.8 83.2C172.8 83.7 173.2 84.1 173.7 84.1H175.1V85.5C175.1 86 175.5 86.4 176 86.4C176.5 86.4 176.9 86 176.9 85.5V84.1H178.3C178.8 84.1 179.2 83.7 179.2 83.2C179.3 82.7 178.9 82.3 178.3 82.3C178.4 82.3 178.4 82.3 178.3 82.3Z" fill="#A9A5AD"/>
<path d="M196.8 82.3H195.4V80.9C195.4 80.4 195 80 194.5 80C194 80 193.6 80.4 193.6 80.9V82.3H192.2C191.7 82.3 191.3 82.7 191.3 83.2C191.3 83.7 191.7 84.1 192.2 84.1H193.6V85.5C193.6 86 194 86.4 194.5 86.4C195 86.4 195.4 86 195.4 85.5V84.1H196.8C197.3 84.1 197.7 83.7 197.7 83.2C197.8 82.7 197.3 82.3 196.8 82.3Z" fill="#A9A5AD"/>
<path d="M215.7 82.3H214.3V80.9C214.3 80.4 213.9 80 213.4 80C212.9 80 212.5 80.4 212.5 80.9V82.3H211C210.5 82.3 210.1 82.7 210.1 83.2C210.1 83.7 210.5 84.1 211 84.1H212.4V85.5C212.4 86 212.8 86.4 213.3 86.4C213.8 86.4 214.2 86 214.2 85.5V84.1H215.6C216.1 84.1 216.5 83.7 216.5 83.2C216.6 82.7 216.2 82.3 215.7 82.3Z" fill="#A9A5AD"/>
<path d="M9.69961 101H8.29961V99.6002C8.29961 99.1002 7.89961 98.7002 7.39961 98.7002C6.89961 98.7002 6.39961 99.0002 6.39961 99.5002V100.9H4.99961C4.49961 100.9 4.09961 101.3 4.09961 101.8C4.09961 102.3 4.49961 102.7 4.99961 102.7H6.39961V104.1C6.39961 104.6 6.79961 105 7.29961 105C7.79961 105 8.19961 104.6 8.19961 104.1V102.7H9.59961C10.0996 102.7 10.4996 102.3 10.4996 101.8C10.4996 101.3 10.1996 101 9.69961 101Z" fill="#A9A5AD"/>
<path d="M28.5 101H27.1V99.6002C27.1 99.1002 26.7 98.7002 26.2 98.7002C25.7 98.7002 25.3 99.1002 25.3 99.6002V101H23.9C23.4 101 23 101.4 23 101.9C23 102.4 23.4 102.8 23.9 102.8H25.3V104.2C25.3 104.7 25.7 105.1 26.2 105.1C26.7 105.1 27.1 104.7 27.1 104.2V102.8H28.5C29 102.8 29.4 102.4 29.4 101.9C29.5 101.4 29.1 101 28.5 101C28.6 101 28.6 101 28.5 101Z" fill="#A9A5AD"/>
<path d="M47.0996 101H45.6996V99.6002C45.6996 99.1002 45.2996 98.7002 44.7996 98.7002C44.2996 98.7002 43.8996 99.1002 43.8996 99.6002V101H42.4996C41.9996 101 41.5996 101.4 41.5996 101.9C41.5996 102.4 41.9996 102.8 42.4996 102.8H43.8996V104.2C43.8996 104.7 44.2996 105.1 44.7996 105.1C45.2996 105.1 45.6996 104.7 45.6996 104.2V102.8H47.0996C47.5996 102.8 47.9996 102.4 47.9996 101.9C47.9996 101.4 47.5996 101 47.0996 101Z" fill="#A9A5AD"/>
<path d="M65.9004 101H64.5004V99.6002C64.5004 99.1002 64.1004 98.7002 63.6004 98.7002C63.1004 98.7002 62.7004 99.1002 62.7004 99.6002V101H61.3004C60.8004 101 60.4004 101.4 60.4004 101.9C60.4004 102.4 60.8004 102.8 61.3004 102.8H62.7004V104.2C62.7004 104.7 63.1004 105.1 63.6004 105.1C64.1004 105.1 64.5004 104.7 64.5004 104.2V102.8H65.9004C66.4004 102.8 66.8004 102.4 66.8004 101.9C66.8004 101.4 66.4004 101 65.9004 101Z" fill="#A9A5AD"/>
<path d="M84.5 101H83.1V99.6002C83.1 99.1002 82.7 98.7002 82.2 98.7002C81.7 98.7002 81.3 99.1002 81.3 99.6002V101H79.9C79.4 101 79 101.4 79 101.9C79 102.4 79.4 102.8 79.9 102.8H81.3V104.2C81.3 104.7 81.7 105.1 82.2 105.1C82.7 105.1 83.1 104.7 83.1 104.2V102.8H84.5C85 102.8 85.4 102.4 85.4 101.9C85.4 101.4 85 101 84.5 101Z" fill="#A9A5AD"/>
<path d="M103.3 101H101.9V99.6002C101.9 99.1002 101.5 98.7002 101 98.7002C100.5 98.7002 100.1 99.1002 100.1 99.6002V101H98.6998C98.1998 101 97.7998 101.4 97.7998 101.9C97.7998 102.4 98.1998 102.8 98.6998 102.8H100.1V104.2C100.1 104.7 100.5 105.1 101 105.1C101.5 105.1 101.9 104.7 101.9 104.2V102.8H103.3C103.8 102.8 104.2 102.4 104.2 101.9C104.3 101.4 103.9 101 103.3 101Z" fill="#A9A5AD"/>
<path d="M121.8 101H120.4V99.6002C120.4 99.1002 120 98.7002 119.5 98.7002C119 98.7002 118.6 99.1002 118.6 99.6002V101H117.2C116.7 101 116.3 101.4 116.3 101.9C116.3 102.4 116.7 102.8 117.2 102.8H118.6V104.2C118.6 104.7 119 105.1 119.5 105.1C120 105.1 120.4 104.7 120.4 104.2V102.8H121.8C122.3 102.8 122.7 102.4 122.7 101.9C122.8 101.4 122.3 101 121.8 101Z" fill="#A9A5AD"/>
<path d="M140.7 101H139.3V99.6002C139.3 99.1002 138.9 98.7002 138.4 98.7002C137.9 98.7002 137.5 99.1002 137.5 99.6002V101H136C135.5 101 135.1 101.4 135.1 101.9C135.1 102.4 135.5 102.8 136 102.8H137.4V104.2C137.4 104.7 137.8 105.1 138.3 105.1C138.8 105.1 139.2 104.7 139.2 104.2V102.8H140.6C141.1 102.8 141.5 102.4 141.5 101.9C141.6 101.4 141.2 101 140.7 101Z" fill="#A9A5AD"/>
<path d="M159.5 101H158.1V99.6002C158.1 99.1002 157.7 98.7002 157.2 98.7002C156.7 98.7002 156.3 99.1002 156.3 99.6002V101H154.9C154.4 101 154 101.4 154 101.9C154 102.4 154.4 102.8 154.9 102.8H156.3V104.2C156.3 104.7 156.7 105.1 157.2 105.1C157.7 105.1 158.1 104.7 158.1 104.2V102.8H159.5C160 102.8 160.4 102.4 160.4 101.9C160.4 101.4 160 101 159.5 101Z" fill="#A9A5AD"/>
<path d="M178.3 101H176.9V99.6002C176.9 99.1002 176.5 98.7002 176 98.7002C175.5 98.7002 175.1 99.1002 175.1 99.6002V101H173.7C173.2 101 172.8 101.4 172.8 101.9C172.8 102.4 173.2 102.8 173.7 102.8H175.1V104.2C175.1 104.7 175.5 105.1 176 105.1C176.5 105.1 176.9 104.7 176.9 104.2V102.8H178.3C178.8 102.8 179.2 102.4 179.2 101.9C179.3 101.4 178.9 101 178.3 101C178.4 101 178.4 101 178.3 101Z" fill="#A9A5AD"/>
<path d="M196.8 101H195.4V99.6002C195.4 99.1002 195 98.7002 194.5 98.7002C194 98.7002 193.6 99.1002 193.6 99.6002V101H192.2C191.7 101 191.3 101.4 191.3 101.9C191.3 102.4 191.7 102.8 192.2 102.8H193.6V104.2C193.6 104.7 194 105.1 194.5 105.1C195 105.1 195.4 104.7 195.4 104.2V102.8H196.8C197.3 102.8 197.7 102.4 197.7 101.9C197.8 101.4 197.3 101 196.8 101Z" fill="#A9A5AD"/>
<path d="M215.7 101H214.3V99.6002C214.3 99.1002 213.9 98.7002 213.4 98.7002C212.9 98.7002 212.5 99.1002 212.5 99.6002V101H211C210.5 101 210.1 101.4 210.1 101.9C210.1 102.4 210.5 102.8 211 102.8H212.4V104.2C212.4 104.7 212.8 105.1 213.3 105.1C213.8 105.1 214.2 104.7 214.2 104.2V102.8H215.6C216.1 102.8 216.5 102.4 216.5 101.9C216.6 101.4 216.2 101 215.7 101Z" fill="#A9A5AD"/>
<path d="M9.69961 119.7H8.29961V118.3C8.29961 117.8 7.89961 117.4 7.39961 117.4C6.89961 117.4 6.49961 117.8 6.49961 118.3V119.7H4.99961C4.49961 119.7 4.09961 120.1 4.09961 120.6C4.09961 121.1 4.49961 121.5 4.99961 121.5H6.39961V122.9C6.39961 123.4 6.79961 123.8 7.29961 123.8C7.79961 123.8 8.19961 123.4 8.19961 122.9V121.5H9.59961C10.0996 121.5 10.4996 121.1 10.4996 120.6C10.4996 120.1 10.1996 119.7 9.69961 119.7Z" fill="#A9A5AD"/>
<path d="M28.5 119.7H27.1V118.3C27.1 117.8 26.7 117.4 26.2 117.4C25.7 117.4 25.3 117.8 25.3 118.3V119.7H23.9C23.4 119.7 23 120.1 23 120.6C23 121.1 23.4 121.5 23.9 121.5H25.3V122.9C25.3 123.4 25.7 123.8 26.2 123.8C26.7 123.8 27.1 123.4 27.1 122.9V121.5H28.5C29 121.5 29.4 121.1 29.4 120.6C29.5 120.1 29.1 119.7 28.5 119.7C28.6 119.7 28.6 119.7 28.5 119.7Z" fill="#A9A5AD"/>
<path d="M47.0996 119.7H45.6996V118.3C45.6996 117.8 45.2996 117.4 44.7996 117.4C44.2996 117.4 43.8996 117.8 43.8996 118.3V119.7H42.4996C41.9996 119.7 41.5996 120.1 41.5996 120.6C41.5996 121.1 41.9996 121.5 42.4996 121.5H43.8996V122.9C43.8996 123.4 44.2996 123.8 44.7996 123.8C45.2996 123.8 45.6996 123.4 45.6996 122.9V121.5H47.0996C47.5996 121.5 47.9996 121.1 47.9996 120.6C47.9996 120.1 47.5996 119.7 47.0996 119.7Z" fill="#A9A5AD"/>
<path d="M65.9004 119.7H64.5004V118.3C64.5004 117.8 64.1004 117.4 63.6004 117.4C63.1004 117.4 62.7004 117.8 62.7004 118.3V119.7H61.3004C60.8004 119.7 60.4004 120.1 60.4004 120.6C60.4004 121.1 60.8004 121.5 61.3004 121.5H62.7004V122.9C62.7004 123.4 63.1004 123.8 63.6004 123.8C64.1004 123.8 64.5004 123.4 64.5004 122.9V121.5H65.9004C66.4004 121.5 66.8004 121.1 66.8004 120.6C66.8004 120.1 66.4004 119.7 65.9004 119.7Z" fill="#A9A5AD"/>
<path d="M84.5 119.7H83.1V118.3C83.1 117.8 82.7 117.4 82.2 117.4C81.7 117.4 81.3 117.8 81.3 118.3V119.7H79.9C79.4 119.7 79 120.1 79 120.6C79 121.1 79.4 121.5 79.9 121.5H81.3V122.9C81.3 123.4 81.7 123.8 82.2 123.8C82.7 123.8 83.1 123.4 83.1 122.9V121.5H84.5C85 121.5 85.4 121.1 85.4 120.6C85.4 120.1 85 119.7 84.5 119.7Z" fill="#A9A5AD"/>
<path d="M103.3 119.7H101.9V118.3C101.9 117.8 101.5 117.4 101 117.4C100.5 117.4 100.1 117.8 100.1 118.3V119.7H98.6998C98.1998 119.7 97.7998 120.1 97.7998 120.6C97.7998 121.1 98.1998 121.5 98.6998 121.5H100.1V122.9C100.1 123.4 100.5 123.8 101 123.8C101.5 123.8 101.9 123.4 101.9 122.9V121.5H103.3C103.8 121.5 104.2 121.1 104.2 120.6C104.3 120.1 103.9 119.7 103.3 119.7C103.4 119.7 103.4 119.7 103.3 119.7Z" fill="#A9A5AD"/>
<path d="M121.8 119.7H120.4V118.3C120.4 117.8 120 117.4 119.5 117.4C119 117.4 118.6 117.8 118.6 118.3V119.7H117.2C116.7 119.7 116.3 120.1 116.3 120.6C116.3 121.1 116.7 121.5 117.2 121.5H118.6V122.9C118.6 123.4 119 123.8 119.5 123.8C120 123.8 120.4 123.4 120.4 122.9V121.5H121.8C122.3 121.5 122.7 121.1 122.7 120.6C122.8 120.1 122.3 119.7 121.8 119.7Z" fill="#A9A5AD"/>
<path d="M140.7 119.7H139.3V118.3C139.3 117.8 138.9 117.4 138.4 117.4C137.9 117.4 137.5 117.8 137.5 118.3V119.7H136C135.5 119.7 135.1 120.1 135.1 120.6C135.1 121.1 135.5 121.5 136 121.5H137.4V122.9C137.4 123.4 137.8 123.8 138.3 123.8C138.8 123.8 139.2 123.4 139.2 122.9V121.5H140.6C141.1 121.5 141.5 121.1 141.5 120.6C141.6 120.1 141.2 119.7 140.7 119.7Z" fill="#A9A5AD"/>
<path d="M159.5 119.7H158.1V118.3C158.1 117.8 157.7 117.4 157.2 117.4C156.7 117.4 156.3 117.8 156.3 118.3V119.7H154.9C154.4 119.7 154 120.1 154 120.6C154 121.1 154.4 121.5 154.9 121.5H156.3V122.9C156.3 123.4 156.7 123.8 157.2 123.8C157.7 123.8 158.1 123.4 158.1 122.9V121.5H159.5C160 121.5 160.4 121.1 160.4 120.6C160.4 120.1 160 119.7 159.5 119.7Z" fill="#A9A5AD"/>
<path d="M178.3 119.7H176.9V118.3C176.9 117.8 176.5 117.4 176 117.4C175.5 117.4 175.1 117.8 175.1 118.3V119.7H173.7C173.2 119.7 172.8 120.1 172.8 120.6C172.8 121.1 173.2 121.5 173.7 121.5H175.1V122.9C175.1 123.4 175.5 123.8 176 123.8C176.5 123.8 176.9 123.4 176.9 122.9V121.5H178.3C178.8 121.5 179.2 121.1 179.2 120.6C179.3 120.1 178.9 119.7 178.3 119.7C178.4 119.7 178.4 119.7 178.3 119.7Z" fill="#A9A5AD"/>
<path d="M196.8 119.7H195.4V118.3C195.4 117.8 195 117.4 194.5 117.4C194 117.4 193.6 117.8 193.6 118.3V119.7H192.2C191.7 119.7 191.3 120.1 191.3 120.6C191.3 121.1 191.7 121.5 192.2 121.5H193.6V122.9C193.6 123.4 194 123.8 194.5 123.8C195 123.8 195.4 123.4 195.4 122.9V121.5H196.8C197.3 121.5 197.7 121.1 197.7 120.6C197.8 120.1 197.3 119.7 196.8 119.7Z" fill="#A9A5AD"/>
<path d="M215.7 119.7H214.3V118.3C214.3 117.8 213.9 117.4 213.4 117.4C212.9 117.4 212.5 117.8 212.5 118.3V119.7H211C210.5 119.7 210.1 120.1 210.1 120.6C210.1 121.1 210.5 121.5 211 121.5H212.4V122.9C212.4 123.4 212.8 123.8 213.3 123.8C213.8 123.8 214.2 123.4 214.2 122.9V121.5H215.6C216.1 121.5 216.5 121.1 216.5 120.6C216.6 120.1 216.2 119.7 215.7 119.7Z" fill="#A9A5AD"/>
<path d="M9.69961 138.4H8.29961V137C8.29961 136.5 7.89961 136.1 7.39961 136.1C6.89961 136.1 6.49961 136.5 6.49961 137V138.4H4.99961C4.49961 138.4 4.09961 138.8 4.09961 139.3C4.09961 139.8 4.49961 140.2 4.99961 140.2H6.39961V141.7C6.39961 142.2 6.79961 142.6 7.29961 142.6C7.79961 142.6 8.19961 142.2 8.19961 141.7V140.3H9.59961C10.0996 140.3 10.4996 139.9 10.4996 139.4C10.4996 138.9 10.1996 138.4 9.69961 138.4Z" fill="#A9A5AD"/>
<path d="M28.5 138.4H27.1V137C27.1 136.5 26.7 136.1 26.2 136.1C25.7 136.1 25.3 136.5 25.3 137V138.4H23.9C23.4 138.4 23 138.8 23 139.3C23 139.8 23.4 140.2 23.9 140.2H25.3V141.7C25.3 142.2 25.7 142.6 26.2 142.6C26.7 142.6 27.1 142.2 27.1 141.7V140.3H28.5C29 140.3 29.4 139.9 29.4 139.4C29.5 138.8 29.1 138.4 28.5 138.4C28.6 138.4 28.6 138.4 28.5 138.4Z" fill="#A9A5AD"/>
<path d="M47.0996 138.4H45.6996V137C45.6996 136.5 45.2996 136.1 44.7996 136.1C44.2996 136.1 43.8996 136.5 43.8996 137V138.4H42.4996C41.9996 138.4 41.5996 138.8 41.5996 139.3C41.5996 139.8 41.9996 140.2 42.4996 140.2H43.8996V141.7C43.8996 142.2 44.2996 142.6 44.7996 142.6C45.2996 142.6 45.6996 142.2 45.6996 141.7V140.3H47.0996C47.5996 140.3 47.9996 139.9 47.9996 139.4C47.9996 138.8 47.5996 138.4 47.0996 138.4Z" fill="#A9A5AD"/>
<path d="M65.9004 138.4H64.5004V137C64.5004 136.5 64.1004 136.1 63.6004 136.1C63.1004 136.1 62.7004 136.5 62.7004 137V138.4H61.3004C60.8004 138.4 60.4004 138.8 60.4004 139.3C60.4004 139.8 60.8004 140.2 61.3004 140.2H62.7004V141.7C62.7004 142.2 63.1004 142.6 63.6004 142.6C64.1004 142.6 64.5004 142.2 64.5004 141.7V140.3H65.9004C66.4004 140.3 66.8004 139.9 66.8004 139.4C66.8004 138.8 66.4004 138.4 65.9004 138.4Z" fill="#A9A5AD"/>
<path d="M84.5 138.4H83.1V137C83.1 136.5 82.7 136.1 82.2 136.1C81.7 136.1 81.3 136.5 81.3 137V138.4H79.9C79.4 138.4 79 138.8 79 139.3C79 139.8 79.4 140.2 79.9 140.2H81.3V141.7C81.3 142.2 81.7 142.6 82.2 142.6C82.7 142.6 83.1 142.2 83.1 141.7V140.3H84.5C85 140.3 85.4 139.9 85.4 139.4C85.4 138.8 85 138.4 84.5 138.4Z" fill="#A9A5AD"/>
<path d="M103.3 138.4H101.9V137C101.9 136.5 101.5 136.1 101 136.1C100.5 136.1 100.1 136.5 100.1 137V138.4H98.6998C98.1998 138.4 97.7998 138.8 97.7998 139.3C97.7998 139.8 98.1998 140.2 98.6998 140.2H100.1V141.7C100.1 142.2 100.5 142.6 101 142.6C101.5 142.6 101.9 142.2 101.9 141.7V140.3H103.3C103.8 140.3 104.2 139.9 104.2 139.4C104.3 138.8 103.9 138.4 103.3 138.4C103.4 138.4 103.4 138.4 103.3 138.4Z" fill="#A9A5AD"/>
<path d="M121.8 138.4H120.4V137C120.4 136.5 120 136.1 119.5 136.1C119 136.1 118.6 136.5 118.6 137V138.4H117.2C116.7 138.4 116.3 138.8 116.3 139.3C116.3 139.8 116.7 140.2 117.2 140.2H118.6V141.7C118.6 142.2 119 142.6 119.5 142.6C120 142.6 120.4 142.2 120.4 141.7V140.3H121.8C122.3 140.3 122.7 139.9 122.7 139.4C122.8 138.8 122.3 138.4 121.8 138.4Z" fill="#A9A5AD"/>
<path d="M140.7 138.4H139.3V137C139.3 136.5 138.9 136.1 138.4 136.1C137.9 136.1 137.5 136.5 137.5 137V138.4H136C135.5 138.4 135.1 138.8 135.1 139.3C135.1 139.8 135.5 140.2 136 140.2H137.4V141.7C137.4 142.2 137.8 142.6 138.3 142.6C138.8 142.6 139.2 142.2 139.2 141.7V140.3H140.6C141.1 140.3 141.5 139.9 141.5 139.4C141.6 138.8 141.2 138.4 140.7 138.4Z" fill="#A9A5AD"/>
<path d="M159.5 138.4H158.1V137C158.1 136.5 157.7 136.1 157.2 136.1C156.7 136.1 156.3 136.5 156.3 137V138.4H154.9C154.4 138.4 154 138.8 154 139.3C154 139.8 154.4 140.2 154.9 140.2H156.3V141.7C156.3 142.2 156.7 142.6 157.2 142.6C157.7 142.6 158.1 142.2 158.1 141.7V140.3H159.5C160 140.3 160.4 139.9 160.4 139.4C160.4 138.8 160 138.4 159.5 138.4Z" fill="#A9A5AD"/>
<path d="M178.3 138.4H176.9V137C176.9 136.5 176.5 136.1 176 136.1C175.5 136.1 175.1 136.5 175.1 137V138.4H173.7C173.2 138.4 172.8 138.8 172.8 139.3C172.8 139.8 173.2 140.2 173.7 140.2H175.1V141.7C175.1 142.2 175.5 142.6 176 142.6C176.5 142.6 176.9 142.2 176.9 141.7V140.3H178.3C178.8 140.3 179.2 139.9 179.2 139.4C179.3 138.8 178.9 138.4 178.3 138.4C178.4 138.4 178.4 138.4 178.3 138.4Z" fill="#A9A5AD"/>
<path d="M196.8 138.4H195.4V137C195.4 136.5 195 136.1 194.5 136.1C194 136.1 193.6 136.5 193.6 137V138.4H192.2C191.7 138.4 191.3 138.8 191.3 139.3C191.3 139.8 191.7 140.2 192.2 140.2H193.6V141.7C193.6 142.2 194 142.6 194.5 142.6C195 142.6 195.4 142.2 195.4 141.7V140.3H196.8C197.3 140.3 197.7 139.9 197.7 139.4C197.8 138.8 197.3 138.4 196.8 138.4Z" fill="#A9A5AD"/>
<path d="M215.7 138.4H214.3V137C214.3 136.5 213.9 136.1 213.4 136.1C212.9 136.1 212.5 136.5 212.5 137V138.4H211C210.5 138.4 210.1 138.8 210.1 139.3C210.1 139.8 210.5 140.2 211 140.2H212.4V141.7C212.4 142.2 212.8 142.6 213.3 142.6C213.8 142.6 214.2 142.2 214.2 141.7V140.3H215.6C216.1 140.3 216.5 139.9 216.5 139.4C216.6 138.8 216.2 138.4 215.7 138.4Z" fill="#A9A5AD"/>
<path d="M9.69961 157.4H8.29961V156C8.29961 155.5 7.89961 155.1 7.39961 155.1C6.89961 155.1 6.49961 155.5 6.49961 156V157.4H4.99961C4.49961 157.4 4.09961 157.8 4.09961 158.3C4.09961 158.8 4.49961 159.2 4.99961 159.2H6.39961V160.7C6.39961 161.2 6.79961 161.6 7.29961 161.6C7.79961 161.6 8.19961 161.2 8.19961 160.7V159.3H9.59961C10.0996 159.3 10.4996 158.9 10.4996 158.4C10.4996 157.9 10.1996 157.4 9.69961 157.4Z" fill="#A9A5AD"/>
<path d="M28.5 157.4H27.1V156C27.1 155.5 26.7 155.1 26.2 155.1C25.7 155.1 25.3 155.5 25.3 156V157.4H23.9C23.4 157.4 23 157.8 23 158.3C23 158.8 23.4 159.2 23.9 159.2H25.3V160.7C25.3 161.2 25.7 161.6 26.2 161.6C26.7 161.6 27.1 161.2 27.1 160.7V159.3H28.5C29 159.3 29.4 158.9 29.4 158.4C29.5 157.8 29.1 157.4 28.5 157.4C28.6 157.4 28.6 157.4 28.5 157.4Z" fill="#A9A5AD"/>
<path d="M47.0996 157.4H45.6996V156C45.6996 155.5 45.2996 155.1 44.7996 155.1C44.2996 155.1 43.8996 155.5 43.8996 156V157.4H42.4996C41.9996 157.4 41.5996 157.8 41.5996 158.3C41.5996 158.8 41.9996 159.2 42.4996 159.2H43.8996V160.7C43.8996 161.2 44.2996 161.6 44.7996 161.6C45.2996 161.6 45.6996 161.2 45.6996 160.7V159.3H47.0996C47.5996 159.3 47.9996 158.9 47.9996 158.4C47.9996 157.8 47.5996 157.4 47.0996 157.4Z" fill="#A9A5AD"/>
<path d="M65.9004 157.4H64.5004V156C64.5004 155.5 64.1004 155.1 63.6004 155.1C63.1004 155.1 62.7004 155.5 62.7004 156V157.4H61.3004C60.8004 157.4 60.4004 157.8 60.4004 158.3C60.4004 158.8 60.8004 159.2 61.3004 159.2H62.7004V160.7C62.7004 161.2 63.1004 161.6 63.6004 161.6C64.1004 161.6 64.5004 161.2 64.5004 160.7V159.3H65.9004C66.4004 159.3 66.8004 158.9 66.8004 158.4C66.8004 157.8 66.4004 157.4 65.9004 157.4Z" fill="#A9A5AD"/>
<path d="M84.5 157.4H83.1V156C83.1 155.5 82.7 155.1 82.2 155.1C81.7 155.1 81.3 155.5 81.3 156V157.4H79.9C79.4 157.4 79 157.8 79 158.3C79 158.8 79.4 159.2 79.9 159.2H81.3V160.7C81.3 161.2 81.7 161.6 82.2 161.6C82.7 161.6 83.1 161.2 83.1 160.7V159.3H84.5C85 159.3 85.4 158.9 85.4 158.4C85.4 157.8 85 157.4 84.5 157.4Z" fill="#A9A5AD"/>
<path d="M103.3 157.4H101.9V156C101.9 155.5 101.5 155.1 101 155.1C100.5 155.1 100.1 155.5 100.1 156V157.4H98.6998C98.1998 157.4 97.7998 157.8 97.7998 158.3C97.7998 158.8 98.1998 159.2 98.6998 159.2H100.1V160.7C100.1 161.2 100.5 161.6 101 161.6C101.5 161.6 101.9 161.2 101.9 160.7V159.3H103.3C103.8 159.3 104.2 158.9 104.2 158.4C104.3 157.8 103.9 157.4 103.3 157.4C103.4 157.4 103.4 157.4 103.3 157.4Z" fill="#A9A5AD"/>
<path d="M121.8 157.4H120.4V156C120.4 155.5 120 155.1 119.5 155.1C119 155.1 118.6 155.5 118.6 156V157.4H117.2C116.7 157.4 116.3 157.8 116.3 158.3C116.3 158.8 116.7 159.2 117.2 159.2H118.6V160.7C118.6 161.2 119 161.6 119.5 161.6C120 161.6 120.4 161.2 120.4 160.7V159.3H121.8C122.3 159.3 122.7 158.9 122.7 158.4C122.8 157.8 122.3 157.4 121.8 157.4Z" fill="#A9A5AD"/>
<path d="M140.7 157.4H139.3V156C139.3 155.5 138.9 155.1 138.4 155.1C137.9 155.1 137.5 155.5 137.5 156V157.4H136C135.5 157.4 135.1 157.8 135.1 158.3C135.1 158.8 135.5 159.2 136 159.2H137.4V160.7C137.4 161.2 137.8 161.6 138.3 161.6C138.8 161.6 139.2 161.2 139.2 160.7V159.3H140.6C141.1 159.3 141.5 158.9 141.5 158.4C141.6 157.8 141.2 157.4 140.7 157.4Z" fill="#A9A5AD"/>
<path d="M159.5 157.4H158.1V156C158.1 155.5 157.7 155.1 157.2 155.1C156.7 155.1 156.3 155.5 156.3 156V157.4H154.9C154.4 157.4 154 157.8 154 158.3C154 158.8 154.4 159.2 154.9 159.2H156.3V160.7C156.3 161.2 156.7 161.6 157.2 161.6C157.7 161.6 158.1 161.2 158.1 160.7V159.3H159.5C160 159.3 160.4 158.9 160.4 158.4C160.4 157.8 160 157.4 159.5 157.4Z" fill="#A9A5AD"/>
<path d="M178.3 157.4H176.9V156C176.9 155.5 176.5 155.1 176 155.1C175.5 155.1 175.1 155.5 175.1 156V157.4H173.7C173.2 157.4 172.8 157.8 172.8 158.3C172.8 158.8 173.2 159.2 173.7 159.2H175.1V160.7C175.1 161.2 175.5 161.6 176 161.6C176.5 161.6 176.9 161.2 176.9 160.7V159.3H178.3C178.8 159.3 179.2 158.9 179.2 158.4C179.3 157.8 178.9 157.4 178.3 157.4C178.4 157.4 178.4 157.4 178.3 157.4Z" fill="#A9A5AD"/>
<path d="M196.8 157.4H195.4V156C195.4 155.5 195 155.1 194.5 155.1C194 155.1 193.6 155.5 193.6 156V157.4H192.2C191.7 157.4 191.3 157.8 191.3 158.3C191.3 158.8 191.7 159.2 192.2 159.2H193.6V160.7C193.6 161.2 194 161.6 194.5 161.6C195 161.6 195.4 161.2 195.4 160.7V159.3H196.8C197.3 159.3 197.7 158.9 197.7 158.4C197.8 157.8 197.3 157.4 196.8 157.4Z" fill="#A9A5AD"/>
<path d="M215.7 157.4H214.3V156C214.3 155.5 213.9 155.1 213.4 155.1C212.9 155.1 212.5 155.5 212.5 156V157.4H211C210.5 157.4 210.1 157.8 210.1 158.3C210.1 158.8 210.5 159.2 211 159.2H212.4V160.7C212.4 161.2 212.8 161.6 213.3 161.6C213.8 161.6 214.2 161.2 214.2 160.7V159.3H215.6C216.1 159.3 216.5 158.9 216.5 158.4C216.6 157.8 216.2 157.4 215.7 157.4Z" fill="#A9A5AD"/>
<path d="M9.69961 176H8.29961V174.6C8.29961 174.1 7.89961 173.7 7.39961 173.7C6.89961 173.7 6.49961 174.1 6.49961 174.6V176H4.99961C4.49961 176 4.09961 176.4 4.09961 176.9C4.09961 177.4 4.49961 177.8 4.99961 177.8H6.39961V179.2C6.39961 179.7 6.79961 180.1 7.29961 180.1C7.79961 180.1 8.19961 179.7 8.19961 179.2V177.8H9.59961C10.0996 177.8 10.4996 177.4 10.4996 176.9C10.4996 176.4 10.1996 176 9.69961 176Z" fill="#A9A5AD"/>
<path d="M28.5 176H27.1V174.6C27.1 174.1 26.7 173.7 26.2 173.7C25.7 173.7 25.3 174.1 25.3 174.6V176H23.9C23.4 176 23 176.4 23 176.9C23 177.4 23.4 177.8 23.9 177.8H25.3V179.2C25.3 179.7 25.7 180.1 26.2 180.1C26.7 180.1 27.1 179.7 27.1 179.2V177.8H28.5C29 177.8 29.4 177.4 29.4 176.9C29.5 176.4 29.1 176 28.5 176C28.6 176 28.6 176 28.5 176Z" fill="#A9A5AD"/>
<path d="M47.0996 176H45.6996V174.6C45.6996 174.1 45.2996 173.7 44.7996 173.7C44.2996 173.7 43.8996 174.1 43.8996 174.6V176H42.4996C41.9996 176 41.5996 176.4 41.5996 176.9C41.5996 177.4 41.9996 177.8 42.4996 177.8H43.8996V179.2C43.8996 179.7 44.2996 180.1 44.7996 180.1C45.2996 180.1 45.6996 179.7 45.6996 179.2V177.8H47.0996C47.5996 177.8 47.9996 177.4 47.9996 176.9C47.9996 176.4 47.5996 176 47.0996 176Z" fill="#A9A5AD"/>
<path d="M65.9004 176H64.5004V174.6C64.5004 174.1 64.1004 173.7 63.6004 173.7C63.1004 173.7 62.7004 174.1 62.7004 174.6V176H61.3004C60.8004 176 60.4004 176.4 60.4004 176.9C60.4004 177.4 60.8004 177.8 61.3004 177.8H62.7004V179.2C62.7004 179.7 63.1004 180.1 63.6004 180.1C64.1004 180.1 64.5004 179.7 64.5004 179.2V177.8H65.9004C66.4004 177.8 66.8004 177.4 66.8004 176.9C66.8004 176.4 66.4004 176 65.9004 176Z" fill="#A9A5AD"/>
<path d="M84.5 176H83.1V174.6C83.1 174.1 82.7 173.7 82.2 173.7C81.7 173.7 81.3 174.1 81.3 174.6V176H79.9C79.4 176 79 176.4 79 176.9C79 177.4 79.4 177.8 79.9 177.8H81.3V179.2C81.3 179.7 81.7 180.1 82.2 180.1C82.7 180.1 83.1 179.7 83.1 179.2V177.8H84.5C85 177.8 85.4 177.4 85.4 176.9C85.4 176.4 85 176 84.5 176Z" fill="#A9A5AD"/>
<path d="M103.3 176H101.9V174.6C101.9 174.1 101.5 173.7 101 173.7C100.5 173.7 100.1 174.1 100.1 174.6V176H98.6998C98.1998 176 97.7998 176.4 97.7998 176.9C97.7998 177.4 98.1998 177.8 98.6998 177.8H100.1V179.2C100.1 179.7 100.5 180.1 101 180.1C101.5 180.1 101.9 179.7 101.9 179.2V177.8H103.3C103.8 177.8 104.2 177.4 104.2 176.9C104.3 176.4 103.9 176 103.3 176C103.4 176 103.4 176 103.3 176Z" fill="#A9A5AD"/>
<path d="M121.8 176H120.4V174.6C120.4 174.1 120 173.7 119.5 173.7C119 173.7 118.6 174.1 118.6 174.6V176H117.2C116.7 176 116.3 176.4 116.3 176.9C116.3 177.4 116.7 177.8 117.2 177.8H118.6V179.2C118.6 179.7 119 180.1 119.5 180.1C120 180.1 120.4 179.7 120.4 179.2V177.8H121.8C122.3 177.8 122.7 177.4 122.7 176.9C122.8 176.4 122.3 176 121.8 176Z" fill="#A9A5AD"/>
<path d="M140.7 176H139.3V174.6C139.3 174.1 138.9 173.7 138.4 173.7C137.9 173.7 137.5 174.1 137.5 174.6V176H136C135.5 176 135.1 176.4 135.1 176.9C135.1 177.4 135.5 177.8 136 177.8H137.4V179.2C137.4 179.7 137.8 180.1 138.3 180.1C138.8 180.1 139.2 179.7 139.2 179.2V177.8H140.6C141.1 177.8 141.5 177.4 141.5 176.9C141.6 176.4 141.2 176 140.7 176Z" fill="#A9A5AD"/>
<path d="M159.5 176H158.1V174.6C158.1 174.1 157.7 173.7 157.2 173.7C156.7 173.7 156.3 174.1 156.3 174.6V176H154.9C154.4 176 154 176.4 154 176.9C154 177.4 154.4 177.8 154.9 177.8H156.3V179.2C156.3 179.7 156.7 180.1 157.2 180.1C157.7 180.1 158.1 179.7 158.1 179.2V177.8H159.5C160 177.8 160.4 177.4 160.4 176.9C160.4 176.4 160 176 159.5 176Z" fill="#A9A5AD"/>
<path d="M178.3 176H176.9V174.6C176.9 174.1 176.5 173.7 176 173.7C175.5 173.7 175.1 174.1 175.1 174.6V176H173.7C173.2 176 172.8 176.4 172.8 176.9C172.8 177.4 173.2 177.8 173.7 177.8H175.1V179.2C175.1 179.7 175.5 180.1 176 180.1C176.5 180.1 176.9 179.7 176.9 179.2V177.8H178.3C178.8 177.8 179.2 177.4 179.2 176.9C179.3 176.4 178.9 176 178.3 176C178.4 176 178.4 176 178.3 176Z" fill="#A9A5AD"/>
<path d="M196.8 176H195.4V174.6C195.4 174.1 195 173.7 194.5 173.7C194 173.7 193.6 174.1 193.6 174.6V176H192.2C191.7 176 191.3 176.4 191.3 176.9C191.3 177.4 191.7 177.8 192.2 177.8H193.6V179.2C193.6 179.7 194 180.1 194.5 180.1C195 180.1 195.4 179.7 195.4 179.2V177.8H196.8C197.3 177.8 197.7 177.4 197.7 176.9C197.8 176.4 197.3 176 196.8 176Z" fill="#A9A5AD"/>
<path d="M215.7 176H214.3V174.6C214.3 174.1 213.9 173.7 213.4 173.7C212.9 173.7 212.5 174.1 212.5 174.6V176H211C210.5 176 210.1 176.4 210.1 176.9C210.1 177.4 210.5 177.8 211 177.8H212.4V179.2C212.4 179.7 212.8 180.1 213.3 180.1C213.8 180.1 214.2 179.7 214.2 179.2V177.8H215.6C216.1 177.8 216.5 177.4 216.5 176.9C216.6 176.4 216.2 176 215.7 176Z" fill="#A9A5AD"/>
</svg>
