<?xml version="1.0" encoding="UTF-8" standalone="no"?>
<svg viewBox="0 0 28 28" fill="black" stroke="none" xmlns="http://www.w3.org/2000/svg">
  <path d="M 4.4082031,5.6992187 A 0.70006999,0.70006999 0 0 0 3.8085938,6.0390625 L 0.40039063,11.703125 a 0.70006999,0.70006999 0 0 0 0.0761719,0.824219 L 13.53125,27.263672 a 0.70006999,0.70006999 0 0 0 1.046875,0 L 27.632812,12.527344 a 0.70006999,0.70006999 0 0 0 0.07617,-0.824219 L 24.302734,6.0390625 A 0.70006999,0.70006999 0 0 0 23.701172,5.6992187 Z M 4.8027344,7.0996094 H 23.306641 l 2.9375,4.8847656 L 14.054688,25.744141 1.8652344,11.984375 Z"/>
  <path d="M 1.265625,11.363281 A 0.69999999,0.69999999 0 0 0 0.56640625,12.064453 0.69999999,0.69999999 0 0 0 1.265625,12.763672 H 8.4355469 A 0.69999999,0.69999999 0 0 0 9.1347656,12.064453 0.69999999,0.69999999 0 0 0 8.4355469,11.363281 Z"/>
  <path d="m 11.753906,11.363281 a 0.69999999,0.69999999 0 0 0 -0.699218,0.701172 0.69999999,0.69999999 0 0 0 0.699218,0.699219 H 26.84375 a 0.69999999,0.69999999 0 0 0 0.701172,-0.699219 0.69999999,0.69999999 0 0 0 -0.701172,-0.701172 z"/>
  <path d="m 8.0898438,11.410156 a 0.69999999,0.69999999 0 0 0 -0.3964844,0.908203 l 5.7089846,14.558594 a 0.69999999,0.69999999 0 0 0 0.908203,0.396484 0.69999999,0.69999999 0 0 0 0.396484,-0.90625 L 8.9980469,11.806641 A 0.69999999,0.69999999 0 0 0 8.0898438,11.410156 Z"/>
  <path d="M 6.1601562,8.0546875 A 0.69999999,0.69999999 0 0 0 5.6386719,8.1738281 0.69999999,0.69999999 0 0 0 5.4746094,9.1503906 l 2.3007812,3.2304684 a 0.69999999,0.69999999 0 0 0 0.9765625,0.164063 0.69999999,0.69999999 0 0 0 0.1640625,-0.976563 L 6.6152344,8.3378906 A 0.69999999,0.69999999 0 0 0 6.1601562,8.0546875 Z"/>
  <path d="m 14.236328,6.03125 a 0.69999999,0.69999999 0 0 0 -0.990234,0.00977 L 7.9355469,11.439453 a 0.69999999,0.69999999 0 0 0 0.00977,0.990235 0.69999999,0.69999999 0 0 0 0.9902344,-0.0078 L 14.244141,7.0214844 A 0.69999999,0.69999999 0 0 0 14.236328,6.03125 Z"/>
  <path d="m 20.064453,11.412109 a 0.69999999,0.69999999 0 0 0 -0.908203,0.396485 l -5.708984,14.558593 a 0.69999999,0.69999999 0 0 0 0.396484,0.908204 0.69999999,0.69999999 0 0 0 0.908203,-0.396485 l 5.708984,-14.560547 a 0.69999999,0.69999999 0 0 0 -0.396484,-0.90625 z"/>
  <path d="m 23.585937,5.796875 a 0.69999999,0.69999999 0 0 0 -0.453125,0.2851562 l -3.894531,5.4882818 a 0.69999999,0.69999999 0 0 0 0.166016,0.974609 0.69999999,0.69999999 0 0 0 0.974609,-0.166016 L 24.273437,6.8925781 A 0.69999999,0.69999999 0 0 0 24.107422,5.9160156 0.69999999,0.69999999 0 0 0 23.585937,5.796875 Z"/>
  <path d="m 13.919922,6.03125 a 0.69999999,0.69999999 0 0 0 -0.0078,0.9902344 l 5.308594,5.4003906 a 0.69999999,0.69999999 0 0 0 0.990234,0.0078 0.69999999,0.69999999 0 0 0 0.0078,-0.990235 L 14.910156,6.0410156 A 0.69999999,0.69999999 0 0 0 13.919922,6.03125 Z"/>
  <path d="M 14.054688,0.30078125 A 0.69999999,0.69999999 0 0 0 13.355469,1 v 2.0800781 a 0.69999999,0.69999999 0 0 0 0.699219,0.6992188 0.69999999,0.69999999 0 0 0 0.699218,-0.6992188 V 1 A 0.69999999,0.69999999 0 0 0 14.054688,0.30078125 Z"/>
  <path d="M 21.746094,0.57226562 A 0.69999999,0.69999999 0 0 0 21.285156,0.84375 l -1.373047,1.8144531 a 0.69999999,0.69999999 0 0 0 0.136719,0.9804688 0.69999999,0.69999999 0 0 0 0.980469,-0.1367188 L 22.400391,1.6875 A 0.69999999,0.69999999 0 0 0 22.265625,0.70703125 0.69999999,0.69999999 0 0 0 21.746094,0.57226562 Z"/>
  <path d="M 5.84375,0.70703125 A 0.69999999,0.69999999 0 0 0 5.7070312,1.6875 L 7.0800781,3.5019531 A 0.69999999,0.69999999 0 0 0 8.0605469,3.6386719 0.69999999,0.69999999 0 0 0 8.1953125,2.6582031 L 6.8242187,0.84375 A 0.69999999,0.69999999 0 0 0 5.84375,0.70703125 Z"/>
</svg>
