<?xml version="1.0" encoding="UTF-8" standalone="no"?>
<svg viewBox="0 0 79 20" fill="black" xmlns="http://www.w3.org/2000/svg">
  <path d="m 48.1803,5.73967 c -1.2792,0 -2.284,0.27419 -3.2894,0.82153 0,-2.92177 0,-5.569342 0.0919,-6.4820984 L 38.8594,1.1743 v 0.54787 l 0.6396,0.09122 c 0.8217,0.18245 1.0972,0.63856 1.2782,1.73482 0.1842,2.19146 0.0918,13.87909 0,15.79689 1.6449,0.3654 3.3817,0.6396 5.1185,0.6396 4.8437,0 7.7679,-3.0135 7.7679,-7.7619 0,-3.74328 -2.3759,-6.48313 -5.4833,-6.48313 z m -2.102,13.23993 c -0.3657,0 -0.8232,0 -1.0966,-0.0906 -0.0918,-1.2782 -0.1826,-6.6662 -0.0918,-11.41399 0.5483,-0.18297 0.9135,-0.27419 1.371,-0.27419 2.0118,0 3.1085,2.3739 3.1085,5.29518 -6e-4,3.6536 -1.3717,6.4836 -3.2911,6.4836 z M 15.8287,0.443993 H -0.255859 V 1.26553 l 0.91405,0.09122 C 1.84561,1.5392 2.30316,2.26951 2.48524,4.00432 c 0.27495,3.28719 0.18312,9.22298 0,12.05248 -0.1826,1.7354 -0.6391,2.5574 -1.827049,2.6476 l -0.91405,0.1835 v 0.7303 H 10.071 V 18.8879 L 8.97436,18.7044 C 7.78641,18.6137 7.32938,17.7922 7.14678,16.0568 7.05496,14.8693 6.96366,12.9516 6.96366,10.5782 l 2.19329,0.0912 c 1.37105,0 2.01015,1.0957 2.28465,2.6476 h 0.8227 V 6.83593 H 11.4416 C 11.1666,8.3883 10.528,9.4835 9.15695,9.4835 L 6.96419,9.57525 c 0,-3.10474 0.0913,-6.02651 0.18312,-7.76133 h 3.19809 c 2.4683,0 3.7475,1.55184 4.6611,4.29169 l 0.914,-0.27419 z"/>
  <path d="m 21.0384,5.55816 c 4.5697,0 6.8543,3.10474 6.8543,7.21344 0,3.9263 -2.559,7.2145 -7.1288,7.2145 -4.5691,0 -6.8537,-3.1052 -6.8537,-7.2145 0,-3.92625 2.5585,-7.21344 7.1282,-7.21344 z m -0.2745,0.91328 c -2.0107,0 -2.559,2.73933 -2.559,6.30016 0,3.4697 0.9141,6.3002 2.7422,6.3002 2.1004,0 2.6498,-2.7393 2.6498,-6.3002 0,-3.46961 -0.913,-6.30016 -2.833,-6.30016 z m 34.0875,6.39196 c 0,-3.74386 2.3758,-7.30524 7.0369,-7.30524 3.8372,0 5.6658,2.83107 5.6658,6.57434 h -8.4993 c -0.0918,3.3784 1.5532,5.8441 4.8436,5.8441 1.4624,0 2.1933,-0.3644 3.1079,-1.004 l 0.3647,0.4561 c -0.9141,1.2782 -2.9242,2.5574 -5.4827,2.5574 -4.1127,-5e-4 -7.0369,-2.9223 -7.0369,-7.1227 z m 4.2034,-1.7348 4.2953,-0.0918 c 0,-1.82603 -0.2744,-4.56536 -1.8276,-4.56536 -1.5531,0 -2.3769,2.55635 -2.4677,4.65716 z M 78.4309,6.28899 C 77.3342,5.83183 75.8724,5.55816 74.2274,5.55816 c -3.3807,0 -5.4838,2.00848 -5.4838,4.38292 0,2.37442 1.5521,3.37842 3.7481,4.10922 2.284,0.821 2.9242,1.4606 2.9242,2.5564 0,1.0957 -0.8228,2.0997 -2.2851,2.0997 -1.7358,0 -3.0161,-1.004 -4.0209,-3.7438 l -0.6402,0.1835 0.0919,4.0175 c 1.0966,0.4561 3.1068,0.822 4.8436,0.822 3.5644,0 5.8495,-1.8271 5.8495,-4.6571 0,-1.9178 -1.0059,-3.013 -3.3818,-3.9268 -2.5595,-1.004 -3.4725,-1.64307 -3.4725,-2.83055 0,-1.18695 0.8238,-2.00901 1.9204,-2.00901 1.6439,0 2.7406,1.0045 3.5644,3.47016 L 78.5243,9.84985 Z M 39.7727,5.92358 C 38.2196,5.01135 35.4774,5.46693 34.0156,8.75465 L 34.1063,5.55868 27.984,6.74564 V 7.2935 l 0.6396,0.09122 c 0.8233,0.09175 1.188,0.54787 1.2798,1.73535 0.1826,2.19143 0.0913,6.02703 0,7.94433 -0.0918,1.0946 -0.4565,1.6425 -1.2798,1.7343 l -0.6396,0.0917 v 0.7303 h 8.4987 v -0.7303 l -1.0966,-0.0917 c -0.9135,-0.0918 -1.1879,-0.6397 -1.2798,-1.7343 -0.1826,-1.7354 -0.1826,-5.205 -0.0907,-7.39647 0.4565,-0.63961 2.4672,-1.18695 4.2947,0 z"/>
</svg>
