<?xml version="1.0" encoding="UTF-8" standalone="no"?>
<svg viewBox="0 0 85 17" fill="black" xmlns="http://www.w3.org/2000/svg">
  <path d="M 11.3355,8.55983 H 6.10261 v 2.75747 h 1.91446 c 0,1.034 -0.55291,2.6656 -1.85077,2.6656 -1.78661,0 -1.93569,-2.0909 -1.93569,-5.44558 0,-3.03333 0.234,-5.49245 1.85029,-5.49245 1.42523,0 1.55309,1.19485 1.65923,3.12527 h 3.70107 c 0,-3.63098 -1.68046,-6.1585956 -5.4457,-6.1585956 -4.6583,0 -5.891984,4.5729756 -5.891984,8.9160756 0,4.73388 1.616774,8.08898 5.573074,8.08898 1.14829,0 2.46737,-0.5287 3.31846,-1.5856 l 0.60888,1.2408 H 11.3351 V 8.55983 Z M 56.006,-0.0166016 c -4.5102,0 -5.8925,4.3201216 -5.8925,8.5027816 0,4.18222 1.3823,8.50232 5.8925,8.50232 4.5092,0 5.8915,-4.3201 5.8915,-8.50232 0,-4.18266 -1.3823,-8.5027816 -5.8915,-8.5027816 z m 0,13.9718016 c -1.7659,0 -1.7659,-2.2523 -1.7659,-5.46902 0,-3.21722 0,-5.46946 1.7659,-5.46946 1.7649,0 1.7649,2.25224 1.7649,5.46946 0,3.21672 0,5.46902 -1.7649,5.46902 z M 84.898,4.93308 c 0,-3.21722 -2.2126,-4.64194 -5.0838,-4.64194 H 74.1133 V 16.6526 h 3.8299 V 9.57501 h 1.2761 l 1.8932,7.07759 H 84.899 L 82.3679,8.70151 C 83.8559,8.10432 84.898,6.65615 84.898,4.93308 Z M 78.6871,6.82925 H 77.9427 V 3.19827 h 0.6378 c 1.2762,0 2.4886,0.13792 2.4886,1.83848 0,1.31025 -0.9355,1.7925 -2.382,1.7925 z M 15.8448,0.301462 h -3.829 V 16.6634 h 9.0194 V 12.971 H 15.8448 Z M 43.2923,0.303806 41.9085,8.04615 40.5263,0.308498 H 34.2459 V 16.67 h 3.8549 V 4.16888 h 0.043 L 40.5475,16.67 h 1.6428 v -0.0047 h 1.0803 L 45.6743,4.16466 h 0.0424 V 16.6653 h 3.855 V 0.303806 Z M 69.5278,0.301462 V 11.6537 c 0,1.2361 -0.3797,2.2883 -1.6433,2.2968 -1.2636,-0.0089 -1.6443,-1.0612 -1.6443,-2.2968 V 0.301462 H 62.4113 V 11.4693 c 0,3.5161 1.5039,5.5445 5.0187,5.5431 0.1583,-4e-4 0.3146,-4e-4 0.4666,-0.0089 0.1524,0.0085 0.2639,0 0.4231,0 3.4671,0 5.0375,-2.0186 5.0375,-5.5347 V 0.301462 Z M 30.5197,0.308498 h -5.795 L 21.4916,16.67 h 3.8714 l 0.5954,-3.3092 h 3.3508 -0.0237 l 0.5954,3.3092 h 3.8714 z M 26.4906,10.4654 27.5887,3.9695 28.7539,10.4654 Z M 84.3215,0.282228 c 0.0668,-4.33e-4 0.133,0.011972 0.1948,0.036503 0.0618,0.024531 0.118,0.060705 0.1654,0.106439 0.0474,0.045733 0.085,0.100123 0.1107,0.160046 0.0257,0.059923 0.039,0.124196 0.0391,0.189119 0,0.284285 -0.2326,0.497735 -0.51,0.497735 C 84.254,1.27263 84.1871,1.26015 84.1247,1.23535 84.0622,1.21055 84.0055,1.17393 83.9577,1.12762 83.91,1.08131 83.8721,1.02623 83.8464,0.965577 83.8208,0.904928 83.8077,0.839923 83.8081,0.774335 c 2e-4,-0.065167 0.0137,-0.129655 0.0396,-0.189738 0.026,-0.060083 0.0639,-0.11457 0.1116,-0.160322 0.0478,-0.045752 0.1044,-0.081862 0.1665,-0.106242 0.0622,-0.02438 0.1287,-0.036549 0.1957,-0.035805 z m 0,0.916662 c 0.2354,0 0.4173,-0.18249 0.4173,-0.424555 0,-0.236905 -0.1819,-0.419394 -0.4173,-0.419394 -0.2384,0 -0.4203,0.182489 -0.4203,0.419394 0,0.242065 0.1815,0.424555 0.4203,0.424555 z M 84.1227,0.487231 h 0.2301 c 0.1414,0 0.2085,0.05442 0.2085,0.165601 0,0.104614 -0.0681,0.147772 -0.1564,0.157155 L 84.5748,1.06519 H 84.4759 L 84.3128,0.816554 H 84.2149 V 1.06519 h -0.0922 z m 0.0922,0.256611 h 0.0969 c 0.0811,0 0.1563,-0.004224 0.1563,-0.095233 0,-0.076936 -0.068,-0.088661 -0.1307,-0.088661 h -0.1225 z"/>
</svg>
