<svg width="41" height="17" viewBox="0 0 41 17" fill="none" xmlns="http://www.w3.org/2000/svg">
<path fill-rule="evenodd" clip-rule="evenodd" d="M19.3915 12.9496V8.16641H21.881C22.9011 8.16641 23.7621 7.82744 24.464 7.15893L24.6325 6.98944C25.9146 5.60534 25.8304 3.44914 24.464 2.1686C23.7808 1.49067 22.8449 1.12346 21.881 1.14229H17.8848V12.9496H19.3915ZM19.3918 6.71581V2.59174H21.9191C22.4619 2.59174 22.9768 2.79888 23.3605 3.17551C24.1749 3.96643 24.1936 5.28463 23.4073 6.10379C23.0236 6.50867 22.4807 6.73464 21.9191 6.71581H19.3918ZM31.6602 5.50214C31.0144 4.90895 30.1347 4.60765 29.021 4.60765C27.5891 4.60765 26.5128 5.13493 25.8016 6.18007L27.1305 7.01807C27.6172 6.30248 28.2817 5.94468 29.1239 5.94468C29.6574 5.94468 30.1721 6.14241 30.5746 6.50021C30.9676 6.83917 31.1922 7.32879 31.1922 7.84665V8.19503C30.612 7.8749 29.882 7.70542 28.9836 7.70542C27.9354 7.70542 27.0931 7.95023 26.466 8.44926C25.839 8.94829 25.5208 9.60739 25.5208 10.4454C25.5021 11.2081 25.8296 11.9331 26.4099 12.4227C26.9995 12.95 27.7482 13.2136 28.6279 13.2136C29.6668 13.2136 30.4903 12.7522 31.1174 11.8295H31.1829V12.95H32.6241V7.96906C32.6241 6.92391 32.3059 6.09533 31.6602 5.50214ZM27.5701 11.462C27.2613 11.236 27.074 10.8688 27.074 10.4733C27.074 10.0308 27.28 9.66359 27.6825 9.3717C28.0943 9.07981 28.6091 8.92916 29.2176 8.92916C30.06 8.91975 30.7152 9.10806 31.1832 9.48469C31.1832 10.125 30.9305 10.6805 30.4344 11.1513C29.9851 11.6032 29.3767 11.8575 28.7402 11.8575C28.319 11.8669 27.9071 11.7256 27.5701 11.462ZM35.8632 16.4991L40.8982 4.87069H39.2605L36.9301 10.6708H36.902L34.5155 4.87069H32.8778L36.1814 12.4315L34.3097 16.4991H35.8632Z" fill="#3C4043"/>
<path d="M14.1896 7.13153C14.1896 6.67016 14.1521 6.20879 14.0773 5.75684H7.72266V8.36499H11.3632C11.2135 9.20298 10.7268 9.95624 10.0156 10.427V12.1219H12.1868C13.4596 10.9449 14.1896 9.20298 14.1896 7.13153Z" fill="#4285F4"/>
<path d="M7.72474 13.7602C9.54034 13.7602 11.0752 13.1576 12.1889 12.1219L10.0176 10.4271C9.40932 10.8413 8.63254 11.0767 7.72474 11.0767C5.96528 11.0767 4.47723 9.88094 3.94378 8.28027H1.70703V10.0316C2.8488 12.3196 5.17914 13.7602 7.72474 13.7602Z" fill="#34A853"/>
<path d="M3.94261 8.2801C3.6618 7.4421 3.6618 6.52877 3.94261 5.68136V3.93945H1.7055C0.741395 5.85084 0.741395 8.11061 1.7055 10.022L3.94261 8.2801Z" fill="#FBBC04"/>
<path d="M7.72474 2.88506C8.68869 2.86623 9.61521 3.23344 10.3078 3.90196L12.2357 1.96232C11.0097 0.813603 9.39996 0.18275 7.72474 0.201582C5.17914 0.201582 2.8488 1.6516 1.70703 3.93962L3.94378 5.69094C4.47723 4.08085 5.96528 2.88506 7.72474 2.88506Z" fill="#EA4335"/>
</svg>
