<svg
        xmlns="http://www.w3.org/2000/svg" viewBox="0 0 102 102">
    <g filter="url(#shadow)">
        <path fill="url(#outer-fill)" fill-opacity="0.7"
        d="M 76.1827,62.8393 C 87.3197,48.7512 84.9273,28.3022 70.8392,17.1653 56.7511,6.02834 36.3022,8.42072 25.1652,22.5088 c -11.1369,14.0881 -8.7445,34.5371 5.3436,45.674 14.0881,11.137 34.537,8.7446 45.6739,-5.3435 z" />
        <g transform="translate(28.17399,20.174062)">
            <path fill="url(#fill)" d="M 22.5,0 C 10.08,0 0,10.08 0,22.5 0,34.92 10.08,45 22.5,45 34.92,45 45,34.92 45,22.5 45,10.08 34.92,0 22.5,0 Z"/>
            <path fill="#ffffff" d="M 16.4025,32.1525 8.325,24.075 c -0.8775,-0.8775 -0.8775,-2.295 0,-3.1725 0.8775,-0.8775 2.295,-0.8775 3.1725,0 l 6.5025,6.48 15.48,-15.48 c 0.8775,-0.8775 2.295,-0.8775 3.1725,0 0.8775,0.8775 0.8775,2.295 0,3.1725 L 19.575,32.1525 c -0.855,0.8775 -2.295,0.8775 -3.1725,0 z"/>
        </g>
    </g>
    <defs>
        <filter color-interpolation-filters="sRGB" filterUnits="userSpaceOnUse" height="101.036" width="101.036" y="0.15625" x="0.156006" id="shadow">
            <feFlood result="BackgroundImageFix" flood-opacity="0" />
            <feColorMatrix result="hardAlpha" values="0 0 0 0 0 0 0 0 0 0 0 0 0 0 0 0 0 0 127 0" in="SourceAlpha" />
            <feOffset dy="8" />
            <feGaussianBlur stdDeviation="9" />
            <feComposite operator="out" in2="hardAlpha" />
            <feColorMatrix id="feColorMatrix16" values="0 0 0 0 0.941176 0 0 0 0 0.929412 0 0 0 0 0.952941 0 0 0 1 0"/>
            <feBlend id="feBlend18" result="effect1_dropShadow_1066:641" in2="BackgroundImageFix"/>
            <feBlend result="shape" in2="effect1_dropShadow_1066:641" in="SourceGraphic"/>
        </filter>
        <linearGradient gradientUnits="userSpaceOnUse" y2="78.4351" x2="61.8547" y1="33.5853" x1="18.6081" id="outer-fill">
            <stop stop-color="#BDB6E8"/>
            <stop stop-color="#EAE7FB" offset="1" />
        </linearGradient>
        <linearGradient gradientUnits="userSpaceOnUse" y2="22.2857" x2="70.2857" y1="22.2857" x1="-28.2857" id="fill">
            <stop stop-color="#BC3755" offset="0.4375"/>
            <stop stop-color="#8E3994" offset="1"/>
        </linearGradient>
    </defs>
</svg>