<svg viewBox="0 0 453 84" fill="black" xmlns="http://www.w3.org/2000/svg" >
    <path d="M51.8575 2.59996C49.8548 0.563098 46.0699 -0.495357 43.3779 0.226916L33.0247 2.99453C30.3298 3.71963 27.585 6.52679 26.875 9.2897L25.6275 14.2401C24.9109 16.9983 22.1416 19.814 19.4505 20.5391L7.41324 23.7728C2.03109 25.2155 -1.12579 30.8816 0.372499 36.4517L11.0746 76.2407C12.5672 81.7835 18.1398 85.1038 23.5211 83.664L91.4439 65.4377C96.8289 63.9941 99.9829 58.3336 98.4903 52.7909L87.7892 12.9981C86.289 7.42987 80.8239 4.07935 75.5756 5.48435L63.9249 8.61451C61.2348 9.33866 57.449 8.28021 55.4491 6.24899L51.8575 2.59996ZM27.3709 49.6286C24.0443 37.5854 31.1039 25.2446 43.1138 22.106C55.1247 18.9674 67.5928 26.2136 70.9185 38.254C74.2536 50.3302 67.1902 62.638 55.1775 65.7767C43.1676 68.9115 30.7069 61.7039 27.3709 49.6286ZM60.8841 40.8926C59.0869 34.4082 52.3488 30.4945 45.887 32.1792C39.4243 33.8648 35.6111 40.5319 37.4045 47.0183C39.1989 53.4961 45.9398 57.4126 52.4025 55.7298C58.8662 54.0423 62.6775 47.377 60.8841 40.8926ZM131.565 44.5191C131.565 52.2051 137.562 58.2263 145.218 58.2263C152.835 58.2263 158.8 52.2051 158.8 44.5191C158.8 36.8331 152.835 30.8129 145.218 30.8129C137.562 30.8129 131.565 36.8331 131.565 44.5191ZM125.185 43.0273C125.934 32.5727 134.453 24.5806 145.218 24.5806C156.453 24.5806 165.254 33.3383 165.254 44.5189C165.254 55.6995 156.453 64.4582 145.218 64.4582C139.965 64.4582 135.258 62.5399 131.712 59.3787V82.1213H125.111V44.872L125.185 43.0273ZM170.983 63.6776H177.367V43.5265C177.367 35.5646 181.488 30.8128 188.39 30.8128C194.131 30.8128 197.424 34.2302 197.424 40.1901V63.6776H203.878V40.1901C203.878 30.7073 197.91 24.5798 188.674 24.5798C184.02 24.5798 180.183 26.1166 177.367 29.0679V7.45431H170.983V63.6776ZM243.287 44.5195C243.287 36.8334 237.321 30.8123 229.704 30.8123C222.049 30.8123 216.052 36.8334 216.052 44.5195C216.052 52.2055 222.049 58.2257 229.704 58.2257C237.321 58.2257 243.287 52.2055 243.287 44.5195ZM229.705 24.5803C240.939 24.5803 249.741 33.3389 249.741 44.5196C249.741 55.7002 240.939 64.4579 229.705 64.4579C218.43 64.4579 209.598 55.7002 209.598 44.5196C209.598 33.3389 218.43 24.5803 229.705 24.5803ZM275.499 63.8632L276.699 63.6805V57.5285L275.161 57.6641C273.708 57.7922 272.185 57.9108 270.906 57.9108C267.307 57.9108 266.109 57.2469 266.109 53.3211V31.6642H276.699V25.3605H266.109V7.53349L259.656 10.8868V25.3605H251.837V31.6642H259.656V53.3211C259.656 57.0096 260.594 59.685 262.523 61.4996C264.366 63.2314 267.016 64.0732 270.627 64.0732C270.851 64.0732 271.081 64.0748 271.315 64.0764C272.583 64.085 273.987 64.0945 275.499 63.8632ZM313.427 44.5195C313.427 36.8334 307.461 30.8123 299.844 30.8123C292.188 30.8123 286.191 36.8334 286.191 44.5195C286.191 52.2055 292.188 58.2257 299.844 58.2257C307.461 58.2257 313.427 52.2055 313.427 44.5195ZM299.844 24.5803C311.08 24.5803 319.881 33.3389 319.881 44.5196C319.881 55.7002 311.08 64.4579 299.844 64.4579C288.57 64.4579 279.737 55.7002 279.737 44.5196C279.737 33.3389 288.57 24.5803 299.844 24.5803ZM392.461 13.6531C392.461 10.2169 389.756 7.52466 386.303 7.52466C382.837 7.52466 380.123 10.2169 380.123 13.6531C380.123 17.0884 382.837 19.7816 386.303 19.7816C389.756 19.7816 392.461 17.0884 392.461 13.6531ZM348.13 23.0817L341.053 41.5217H355.208L348.13 23.0817ZM344.147 7.52437H352.117L373.887 63.6771H363.681L358.777 50.856H337.414L332.508 63.6771H322.299L344.147 7.52437ZM381.62 63.6779H390.965V25.6969H381.62V63.6779ZM423.663 16.858H411.387V54.3446H423.663C433.616 54.3446 440.842 46.4618 440.842 35.6004C440.842 24.7409 433.616 16.858 423.663 16.858ZM423.663 7.52494C438.868 7.52494 450.333 19.5945 450.333 35.6004C450.333 51.6071 438.868 63.6776 423.663 63.6776H401.823V7.52494H423.663Z" />
</svg>