<svg width="37" height="23" viewBox="0 0 37 23" fill="none" xmlns="http://www.w3.org/2000/svg">
<path fill-rule="evenodd" clip-rule="evenodd" d="M25.3247 22.1309C31.3419 22.1309 36.2198 17.2375 36.2198 11.2012C36.2198 5.16489 31.3419 0.271484 25.3247 0.271484C22.6277 0.271484 20.1596 1.25453 18.257 2.88291C16.3545 1.25484 13.8867 0.272001 11.19 0.272001C5.17282 0.272001 0.294922 5.16541 0.294922 11.2017C0.294922 17.238 5.17282 22.1315 11.19 22.1315C13.887 22.1315 16.3551 21.1484 18.2576 19.52C20.1601 21.1481 22.628 22.1309 25.3247 22.1309Z" fill="#ED0006"/>
<path fill-rule="evenodd" clip-rule="evenodd" d="M18.2578 19.5189C20.6004 17.5142 22.0858 14.5312 22.0858 11.2002C22.0858 7.86922 20.6004 4.88624 18.2578 2.88153C20.1603 1.25339 22.6282 0.270508 25.325 0.270508C31.3422 0.270508 36.2201 5.16391 36.2201 11.2002C36.2201 17.2366 31.3422 22.13 25.325 22.13C22.6282 22.13 20.1603 21.1471 18.2578 19.5189Z" fill="#F9A000"/>
<path fill-rule="evenodd" clip-rule="evenodd" d="M18.2576 19.5192C20.6002 17.5145 22.0856 14.5316 22.0856 11.2005C22.0856 7.86953 20.6002 4.88655 18.2576 2.88184C15.9151 4.88655 14.4297 7.86953 14.4297 11.2005C14.4297 14.5316 15.9151 17.5145 18.2576 19.5192Z" fill="#FF5E00"/>
</svg>
