<svg viewBox="0 0 30 39" fill="black" xmlns="http://www.w3.org/2000/svg">
    <path d="M3.90918 15.0666C3.90918 21.203 8.90137 26.1952 15.0377 26.1952C21.174 26.1952 26.1662 21.203 26.1662 15.0666C26.1662 8.9303 21.174 3.93811 15.0377 3.93811C8.90137 3.93811 3.90918 8.9303 3.90918 15.0666ZM15.0377 5.42191C20.3559 5.42191 24.6824 9.74842 24.6824 15.0666C24.6824 20.3848 20.3559 24.7113 15.0377 24.7113C9.71949 24.7113 5.39298 20.3848 5.39298 15.0666C5.39298 9.74842 9.71949 5.42191 15.0377 5.42191Z" />
    <path d="M8.16687 13.7447L11.0426 16.5781L10.381 20.5603C10.3349 20.8377 10.4494 21.117 10.6769 21.2822C10.9041 21.4474 11.2052 21.4697 11.4547 21.3405L15.0376 19.4799L18.6201 21.3405C18.8676 21.4689 19.1687 21.4489 19.398 21.2822C19.6255 21.117 19.7399 20.8377 19.6939 20.5603L19.0322 16.5781L21.908 13.7447C22.1082 13.5476 22.1798 13.2543 22.0929 12.9868C22.0059 12.7196 21.7755 12.5246 21.4976 12.4826L17.5067 11.8818L15.7009 8.27055C15.5754 8.01929 15.3184 7.86047 15.0376 7.86047C14.7565 7.86047 14.4997 8.01929 14.3739 8.27055L12.5681 11.8818L8.57723 12.4826C8.29931 12.5243 8.06891 12.7196 7.98197 12.9868C7.89503 13.2543 7.9669 13.5476 8.16687 13.7447V13.7447ZM13.1701 13.2917C13.4089 13.2558 13.6152 13.1059 13.7233 12.89L15.0376 10.2612L16.3518 12.89C16.4599 13.1059 16.6663 13.2558 16.9051 13.2917L19.8098 13.729L17.7165 15.791C17.5447 15.9605 17.4658 16.2031 17.5053 16.4413L17.9869 19.3397L15.3792 17.9857C15.2723 17.93 15.1549 17.9022 15.0376 17.9022C14.9202 17.9022 14.8028 17.93 14.6956 17.9857L12.0879 19.3397L12.5696 16.4413C12.6093 16.2031 12.5305 15.9605 12.3583 15.791L10.2653 13.729L13.1701 13.2917Z" />
    <path d="M15.7796 1.7127C15.7796 2.12248 15.4475 2.4546 15.0377 2.4546C14.6279 2.4546 14.2958 2.12248 14.2958 1.7127C14.2958 1.30291 14.6279 0.970795 15.0377 0.970795C15.4475 0.970795 15.7796 1.30291 15.7796 1.7127Z" />
    <path d="M11.541 1.40864C5.30008 3.0017 0.941406 8.61842 0.941406 15.0675C0.941406 19.0729 2.62546 22.847 5.58177 25.5199L1.1121 33.3971C0.968358 33.6506 0.986326 33.9648 1.15789 34.2001C1.32946 34.4357 1.62274 34.549 1.9082 34.4896L6.98414 33.4356L8.76818 38.4629C8.86497 38.7364 9.11275 38.928 9.40198 38.9538C9.69121 38.9796 9.96855 38.8338 10.112 38.5814L15.0375 29.922L19.9628 38.5814C20.0955 38.8147 20.3424 38.9564 20.6073 38.9564C20.629 38.9564 20.6511 38.9555 20.6728 38.9538C20.962 38.928 21.2098 38.7361 21.3069 38.4629L23.0906 33.4356L28.1666 34.4896C28.4517 34.5487 28.7453 34.4354 28.9169 34.2001C29.0887 33.9648 29.1064 33.6506 28.9627 33.3971L24.493 25.5199C27.4493 22.847 29.1334 19.0729 29.1334 15.0675C29.1334 8.61842 24.7747 3.0017 18.534 1.40864C18.1367 1.30721 17.733 1.54688 17.6316 1.94391C17.5301 2.34094 17.7698 2.74493 18.1668 2.84637C23.7502 4.27163 27.6499 9.29714 27.6499 15.0675C27.6499 22.0903 21.9462 27.6798 15.0375 27.6798C8.12394 27.6798 2.42521 22.0857 2.42521 15.0675C2.42521 9.29714 6.32454 4.27163 11.9079 2.84637C12.305 2.74493 12.5446 2.34094 12.4435 1.94391C12.3421 1.54688 11.9384 1.30721 11.541 1.40864V1.40864ZM9.62426 36.4383L8.16625 32.3297C8.04221 31.9802 7.67938 31.7759 7.31625 31.8512L3.21174 32.7036L6.7491 26.4693C8.81165 27.9687 11.2538 28.8822 13.7934 29.1082L9.62426 36.4383ZM22.7585 31.8512C22.3957 31.7759 22.0326 31.9802 21.9085 32.3297L20.4508 36.4383L16.2814 29.1082C18.8212 28.8822 21.2631 27.9687 23.326 26.4693L26.8633 32.7036L22.7585 31.8512Z" />
</svg>