<?xml version="1.0" encoding="UTF-8" standalone="no"?>
<svg viewBox="0 0 88 24" fill="black" xmlns="http://www.w3.org/2000/svg">
  <path d="M 3.88281,0.0361328 H 20.3345 V 23.9624 H 3.88281 Z M 6.25406,21.5537 H 17.9551 V 2.44572 H 6.25406 Z"/>
  <path d="M 31.2622,10.7713 H 30.2445 C 28.9078,8.85475 27.582,6.95025 26.2581,4.79784 H 26.2485 V 10.7713 H 25.1236 V 2.44248 h 1.0185 c 1.3367,1.9031 2.6607,3.79416 3.9723,5.93545 h 0.0233 V 2.44248 h 1.1249 v 8.32882 z m 2.6739,-3.2965 c 0.3264,-1.09497 0.6551,-2.10607 0.9487,-3.39149 h 0.0237 c 0.3278,1.28542 0.6214,2.29698 0.9259,3.39149 z m 0.5378,-5.03232 -2.8351,8.32882 h 1.2189 l 0.7132,-2.27336 h 2.4748 l 0.6442,2.27336 h 1.5719 L 35.6467,2.44248 Z m 5.1114,8.32882 V 3.55969 H 37.4277 V 2.44248 h 5.7199 v 1.11721 h -2.1558 v 7.21161 z m 4.0184,-8.32882 h 1.397 v 8.32882 h -1.397 z m 5.7341,7.28018 c -1.4669,0 -1.9823,-1.64176 -1.9823,-3.23625 0,-1.53426 0.5857,-2.99808 1.9823,-2.99808 1.3947,0 1.9786,1.46382 1.9786,2.99808 0,1.59449 -0.5145,3.23625 -1.9786,3.23625 z m 0,1.18954 c 2.1443,0 3.4802,-1.93837 3.4802,-4.42626 0,-2.33127 -1.4747,-4.18711 -3.4802,-4.18711 -2.0038,0 -3.4848,1.85584 -3.4848,4.18711 5e-4,2.48836 1.3386,4.42626 3.4848,4.42626 z M 59.8157,10.7713 H 58.7968 C 57.4591,8.85475 56.1342,6.95025 54.8112,4.79784 H 54.7998 V 10.7713 H 53.6762 V 2.44248 h 1.019 c 1.3349,1.9031 2.6598,3.79416 3.9705,5.93545 h 0.0242 V 2.44248 h 1.1263 v 8.32882 z m 2.6726,-3.2965 c 0.3292,-1.09497 0.6556,-2.10607 0.9505,-3.39149 h 0.0233 c 0.3282,1.28542 0.6204,2.29698 0.9245,3.39149 z m 0.5405,-5.03232 -2.8364,8.32882 h 1.2198 l 0.7132,-2.27336 h 2.4744 l 0.6446,2.27336 h 1.57 L 64.1999,2.44248 Z m 4.1942,0 h 1.3975 v 7.20974 h 2.7766 V 10.7713 H 67.223 Z M 30.3975,17.7378 v 3.4373 c -0.751,0.2989 -1.5367,0.5116 -2.3316,0.5116 -2.4155,0 -3.9389,-1.9036 -3.9389,-4.3549 0,-2.2733 1.5234,-4.2594 3.9851,-4.2594 0.7605,0 1.523,0.2869 1.9923,0.6432 l -0.4575,0.9875 c -0.3743,-0.2359 -0.9619,-0.4384 -1.5001,-0.4384 -1.4993,0 -2.5201,1.202 -2.5201,3.094 0,1.9736 1.1728,3.1385 2.3804,3.1385 0.3734,0 0.6916,-0.0454 0.9861,-0.2016 v -2.5578 z m 5.031,-3.4017 h -2.3471 v 2.2831 h 2.2973 v 1.1186 h -2.2973 v 2.6871 h 2.7662 v 1.12 h -4.1737 v -8.3293 h 3.7546 z m 4.3366,6.1606 c -1.4668,0 -1.9832,-1.6403 -1.9832,-3.2358 0,-1.5333 0.5862,-2.9966 1.9832,-2.9966 1.3938,0 1.9787,1.4633 1.9787,2.9966 0,1.5955 -0.5168,3.2358 -1.9787,3.2358 z m 0,1.19 c 2.1439,0 3.4793,-1.9392 3.4793,-4.4262 0,-2.3313 -1.476,-4.1885 -3.4793,-4.1885 -2.0069,0 -3.482,1.8572 -3.482,4.1885 -4e-4,2.4874 1.3336,4.4262 3.482,4.4262 z m 10.2301,-3.9489 v 3.4373 c -0.751,0.2989 -1.5344,0.5116 -2.3324,0.5116 -2.4138,0 -3.9386,-1.9036 -3.9386,-4.3549 0,-2.2733 1.5248,-4.2594 3.9865,-4.2594 0.7624,0 1.523,0.2869 1.9909,0.6432 l -0.4574,0.9875 c -0.3753,-0.2359 -0.9578,-0.4384 -1.4979,-0.4384 -1.5025,0 -2.5224,1.202 -2.5224,3.094 0,1.9736 1.1733,3.1385 2.3809,3.1385 0.3762,0 0.6912,-0.0454 0.9852,-0.2016 v -2.5578 z m 2.699,-3.4017 h 0.6196 c 0.8299,0 1.3002,0.4856 1.3002,1.3433 0,1.1172 -0.667,1.6163 -1.3359,1.652 -0.141,0.0143 -0.4697,0.0264 -0.5839,0.0366 z m 3.5624,7.2088 -1.6559,-3.4489 c 0.9026,-0.4866 1.4212,-1.4768 1.4212,-2.4763 0,-1.6196 -0.9747,-2.4041 -2.5456,-2.4041 h -2.1918 v 8.3293 h 1.4097 v -3.1408 h 0.6323 l 1.3222,3.1408 z m 2.3201,-3.296 c 0.3273,-1.0964 0.6556,-2.1066 0.9496,-3.3915 h 0.0233 c 0.3282,1.2849 0.6204,2.2951 0.9254,3.3915 z m 0.5383,-5.0333 -2.8374,8.3293 h 1.2189 l 0.7159,-2.2733 h 2.4744 l 0.641,2.2733 h 1.5737 L 60.286,13.2156 Z m 6.423,0 h -2.1919 v 8.3293 h 1.4071 v -3.1408 h 0.6314 c 1.6773,0 2.6981,-1.3804 2.6981,-2.7844 0,-1.62 -0.9738,-2.4041 -2.5447,-2.4041 z m -0.1973,4.1162 c -0.1461,0.0135 -0.4894,0.0246 -0.5875,0.0343 v -3.03 h 0.6314 c 0.8204,0 1.291,0.4856 1.291,1.3433 0,1.1172 -0.666,1.6168 -1.3349,1.6524 z m 9.2581,4.2131 h -1.4061 v -4.0082 h -2.9209 v 4.0082 h -1.3911 v -8.3293 h 1.3911 v 3.2006 h 2.9209 v -3.1769 h 1.4061 z m 1.3468,-8.3293 h 1.3979 v 8.3293 h -1.3979 z m 7.7251,1.512 c -0.3406,-0.2145 -0.9008,-0.4633 -1.4427,-0.4633 -1.4321,0 -2.4717,1.202 -2.4717,3.094 0,1.9735 1.1477,3.1384 2.5082,3.1384 0.498,-0.0023 0.9853,-0.1469 1.4062,-0.417 l 0.388,1.0361 c -0.4246,0.297 -1.1724,0.5709 -1.8512,0.5709 -2.4156,0 -3.9404,-1.9036 -3.9404,-4.3549 0,-2.2733 1.5116,-4.2594 3.9609,-4.2594 0.7286,0 1.4061,0.3114 1.8896,0.6432 z"/>
</svg>
