<svg viewBox="0 0 35 34" fill="black" xmlns="http://www.w3.org/2000/svg">
  <path d="M30.2213 27.8966C29.8778 27.8966 29.5995 28.1749 29.5995 28.5183V30.7062C29.5995 31.5766 28.8912 32.2849 28.0209 32.2849H6.97994C6.1096 32.2849 5.40128 31.5766 5.40128 30.7062V20.4813C5.40128 20.1378 5.12291 19.8595 4.77956 19.8595C4.43622 19.8595 4.15785 20.1378 4.15785 20.4813V30.7062C4.15785 32.2624 5.42374 33.5283 6.97994 33.5283H28.0209C29.5771 33.5283 30.843 32.2624 30.843 30.7062V28.5183C30.843 28.1749 30.5646 27.8966 30.2213 27.8966Z"  />
  <path d="M28.0211 12.2885H26.9915V9.40108C26.9915 4.1677 22.734 -0.0897111 17.5006 -0.0897111C12.2672 -0.0897111 8.00974 4.1677 8.00974 9.40115V12.2886H6.98013C5.42393 12.2886 4.15803 13.5544 4.15803 15.1107V18.1961C4.15803 18.5396 4.4364 18.8179 4.77975 18.8179C5.12309 18.8179 5.40146 18.5396 5.40146 18.1961V15.1107C5.40146 14.2404 6.10979 13.532 6.98013 13.532H28.0211C28.8914 13.532 29.5997 14.2404 29.5997 15.1107V26.2332C29.5997 26.5766 29.878 26.8549 30.2215 26.8549C30.5649 26.8549 30.8432 26.5766 30.8432 26.2332V15.1106C30.8432 13.5544 29.5773 12.2885 28.0211 12.2885ZM11.864 12.2885V9.40108C11.864 6.29316 14.3927 3.76452 17.5006 3.76452C20.6085 3.76452 23.1372 6.29316 23.1372 9.40115V12.2885H11.864ZM24.3807 12.2886V9.40108C24.3807 5.60736 21.2944 2.52109 17.5006 2.52109C13.7068 2.52109 10.6205 5.60736 10.6205 9.40115V12.2886H9.25317V9.40115C9.25317 4.85363 12.9531 1.15372 17.5006 1.15372C22.0481 1.15372 25.748 4.85363 25.748 9.40115V12.2886H24.3807Z"  />
  <path d="M18.8618 23.5177L18.8618 23.5177C18.6702 23.629 18.5524 23.8337 18.5524 24.0552V27.9024C18.5524 28.4821 18.0806 28.9539 17.5009 28.9539C16.9212 28.9539 16.4494 28.4821 16.4494 27.9024V24.0552C16.4494 23.8337 16.3316 23.6289 16.1401 23.5177L16.1401 23.5177C15.305 23.0325 14.7862 22.1323 14.7862 21.1691C14.7862 19.6723 16.0041 18.4544 17.5009 18.4544C18.9977 18.4544 20.2157 19.6723 20.2157 21.1691C20.2157 22.1323 19.6969 23.0325 18.8618 23.5177ZM17.5009 30.1974C18.7664 30.1974 19.7958 29.1681 19.7958 27.9025V24.3932C20.8299 23.6552 21.459 22.4511 21.459 21.1691C21.459 18.9865 19.6835 17.211 17.5009 17.211C15.3182 17.211 13.5427 18.9865 13.5427 21.1691C13.5427 22.4511 14.1718 23.6552 15.2059 24.3932V27.9025C15.2059 29.168 16.2354 30.1974 17.5009 30.1974Z" />
</svg>