<svg width="78" height="21" viewBox="0 0 78 21" fill="none" xmlns="http://www.w3.org/2000/svg">
<path d="M29.1893 5.16406H24.8787C24.7359 5.16397 24.5979 5.21547 24.4894 5.30928C24.3809 5.40308 24.309 5.53303 24.2868 5.67571L22.5434 16.8636C22.5354 16.9155 22.5386 16.9686 22.5527 17.0191C22.5669 17.0697 22.5918 17.1165 22.6256 17.1564C22.6593 17.1963 22.7013 17.2283 22.7485 17.2502C22.7956 17.2722 22.8469 17.2835 22.8989 17.2834H24.9568C25.0996 17.2835 25.2377 17.2319 25.3463 17.1379C25.4548 17.044 25.5266 16.9139 25.5487 16.7711L26.0189 13.7536C26.041 13.6109 26.1126 13.4809 26.221 13.3869C26.3294 13.293 26.4674 13.2414 26.6101 13.2413H27.9747C30.8142 13.2413 32.453 11.8505 32.881 9.09454C33.0739 7.88879 32.8892 6.94142 32.3314 6.27794C31.7187 5.54939 30.6321 5.16406 29.1893 5.16406V5.16406ZM29.6866 9.2502C29.4509 10.8158 28.2691 10.8158 27.1263 10.8158H26.4758L26.9322 7.89198C26.9455 7.80644 26.9886 7.72854 27.0537 7.67228C27.1187 7.61603 27.2015 7.58512 27.287 7.58512H27.5852C28.3636 7.58512 29.0979 7.58512 29.4774 8.03425C29.7036 8.30219 29.773 8.70028 29.6866 9.2502V9.2502ZM42.0746 9.1998H40.0104C39.9248 9.1998 39.8421 9.23071 39.777 9.28696C39.712 9.34322 39.6689 9.42112 39.6555 9.50666L39.5641 10.091L39.4198 9.87923C38.9729 9.22277 37.9764 9.00331 36.9818 9.00331C34.7007 9.00331 32.7524 10.752 32.373 13.2049C32.1757 14.4285 32.4562 15.5985 33.1419 16.4145C33.771 17.1647 34.6711 17.4773 35.742 17.4773C37.5799 17.4773 38.5991 16.2812 38.5991 16.2812L38.5071 16.8617C38.4989 16.9136 38.5019 16.9667 38.5159 17.0173C38.53 17.0679 38.5547 17.1149 38.5883 17.1549C38.622 17.1949 38.6638 17.2271 38.711 17.2491C38.7581 17.2712 38.8094 17.2827 38.8613 17.2828H40.7207C40.8635 17.2828 41.0017 17.2312 41.1102 17.1373C41.2187 17.0434 41.2905 16.9133 41.3126 16.7705L42.4282 9.61958C42.4364 9.56779 42.4334 9.51481 42.4194 9.46431C42.4055 9.41381 42.3808 9.36698 42.3472 9.32706C42.3136 9.28715 42.2718 9.2551 42.2247 9.23313C42.1777 9.21115 42.1264 9.19978 42.0746 9.1998V9.1998ZM39.1973 13.2662C38.9981 14.4598 38.0621 15.2611 36.8683 15.2611C36.2689 15.2611 35.7899 15.0665 35.4823 14.6977C35.1772 14.3316 35.0612 13.8103 35.1583 13.2298C35.3442 12.0464 36.296 11.2189 37.4715 11.2189C38.0577 11.2189 38.5342 11.4161 38.8481 11.788C39.1626 12.1638 39.2874 12.6882 39.1973 13.2662V13.2662ZM53.0684 9.1998H50.9941C50.8962 9.19996 50.7999 9.22427 50.7135 9.27063C50.627 9.31699 50.5531 9.38399 50.498 9.46583L47.6371 13.7312L46.4244 9.63234C46.3871 9.50732 46.3111 9.39776 46.2076 9.31986C46.1041 9.24196 45.9785 9.19986 45.8495 9.1998H43.8111C43.7539 9.19965 43.6975 9.21333 43.6465 9.2397C43.5956 9.26608 43.5516 9.30439 43.5183 9.35145C43.4849 9.3985 43.4631 9.45294 43.4548 9.51023C43.4464 9.56752 43.4516 9.62601 43.4701 9.68082L45.755 16.4674L43.6069 19.5367C43.5687 19.5911 43.5461 19.6551 43.5414 19.7217C43.5368 19.7882 43.5504 19.8548 43.5806 19.9141C43.6109 19.9734 43.6567 20.0231 43.713 20.0578C43.7694 20.0925 43.8341 20.1109 43.9 20.1108H45.9718C46.0685 20.111 46.1639 20.0874 46.2496 20.042C46.3353 19.9967 46.4089 19.931 46.4641 19.8505L53.3634 9.77077C53.4008 9.71624 53.4227 9.65239 53.4268 9.58613C53.4309 9.51988 53.417 9.45376 53.3866 9.39494C53.3562 9.33611 53.3105 9.28683 53.2544 9.25243C53.1983 9.21803 53.134 9.19983 53.0684 9.1998V9.1998Z" fill="#253B80"/>
<path d="M59.9355 5.1647H55.6242C55.4816 5.16476 55.3437 5.21633 55.2353 5.31012C55.127 5.40391 55.0552 5.53378 55.033 5.67634L53.2896 16.8642C53.2815 16.9161 53.2846 16.969 53.2986 17.0195C53.3127 17.07 53.3374 17.1169 53.3711 17.1568C53.4048 17.1967 53.4466 17.2287 53.4937 17.2507C53.5407 17.2726 53.592 17.284 53.6438 17.284H55.8562C55.956 17.2839 56.0525 17.2477 56.1283 17.1819C56.2041 17.1162 56.2542 17.0253 56.2697 16.9255L56.7644 13.7542C56.7865 13.6115 56.8582 13.4815 56.9666 13.3876C57.075 13.2936 57.213 13.242 57.3557 13.2419H58.7197C61.5598 13.2419 63.198 11.8511 63.6266 9.09516C63.8201 7.88942 63.6342 6.94205 63.0763 6.27858C62.4643 5.55003 61.3783 5.1647 59.9355 5.1647V5.1647ZM60.4328 9.25083C60.1977 10.8164 59.0159 10.8164 57.8725 10.8164H57.2227L57.6797 7.89261C57.6928 7.80707 57.7357 7.7291 57.8007 7.67282C57.8656 7.61653 57.9484 7.58565 58.0339 7.58575H58.332C59.1098 7.58575 59.8448 7.58575 60.2242 8.03488C60.4505 8.30282 60.5192 8.70091 60.4328 9.25083V9.25083ZM72.8202 9.20043H70.7573C70.6717 9.20019 70.5889 9.23103 70.5239 9.28734C70.4589 9.34365 70.416 9.42169 70.403 9.50729L70.3116 10.0917L70.1667 9.87985C69.7198 9.22339 68.7239 9.00394 67.7293 9.00394C65.4482 9.00394 63.5005 10.7526 63.1211 13.2055C62.9244 14.4291 63.2037 15.5992 63.8894 16.4151C64.5197 17.1653 65.4186 17.4779 66.4894 17.4779C68.3274 17.4779 69.3466 16.2818 69.3466 16.2818L69.2546 16.8623C69.2464 16.9143 69.2494 16.9675 69.2635 17.0182C69.2776 17.0689 69.3024 17.1159 69.3362 17.156C69.37 17.196 69.412 17.2281 69.4593 17.2501C69.5066 17.2721 69.5581 17.2835 69.6101 17.2834H71.4689C71.6116 17.2833 71.7495 17.2316 71.8579 17.1377C71.9663 17.0438 72.038 16.9138 72.0601 16.7711L73.1764 9.6202C73.1843 9.56825 73.181 9.51518 73.1667 9.46464C73.1525 9.41409 73.1276 9.36727 73.0937 9.32739C73.0599 9.28751 73.0179 9.25551 72.9707 9.2336C72.9235 9.21168 72.8722 9.20037 72.8202 9.20043V9.20043ZM69.9429 13.2668C69.745 14.4604 68.8077 15.2617 67.6139 15.2617C67.0158 15.2617 66.5355 15.0671 66.2279 14.6984C65.9228 14.3322 65.8081 13.811 65.9039 13.2304C66.0911 12.047 67.0416 11.2196 68.2171 11.2196C68.8033 11.2196 69.2798 11.4167 69.5937 11.7886C69.9095 12.1644 70.0343 12.6888 69.9429 13.2668V13.2668ZM75.2539 5.47156L73.4846 16.8642C73.4765 16.9161 73.4796 16.969 73.4936 17.0195C73.5077 17.07 73.5324 17.1169 73.5661 17.1568C73.5998 17.1967 73.6416 17.2287 73.6887 17.2507C73.7358 17.2726 73.787 17.284 73.8388 17.284H75.6175C75.9132 17.284 76.164 17.0671 76.2094 16.7717L77.9541 5.58448C77.9622 5.53262 77.9591 5.4796 77.945 5.42907C77.931 5.37854 77.9062 5.33169 77.8726 5.29174C77.8389 5.25179 77.7971 5.2197 77.75 5.19766C77.703 5.17562 77.6517 5.16416 77.5999 5.16406H75.6081C75.5226 5.16437 75.44 5.19548 75.3751 5.25183C75.3102 5.30817 75.2672 5.38607 75.2539 5.47156V5.47156Z" fill="#179BD7"/>
<path d="M4.64151 19.4575L4.97116 17.3382L4.23685 17.321H0.730469L3.16723 1.68269C3.17448 1.63491 3.19846 1.59136 3.23479 1.55998C3.27112 1.52859 3.31738 1.51147 3.36514 1.51172H9.2774C11.2402 1.51172 12.5947 1.92512 13.3019 2.74107C13.6334 3.12385 13.8446 3.52385 13.9467 3.96404C14.0539 4.42592 14.0557 4.97776 13.9511 5.65081L13.9435 5.69993V6.13119L14.2751 6.3213C14.5282 6.45109 14.7557 6.62666 14.9464 6.83933C15.23 7.1666 15.4134 7.58255 15.4909 8.0757C15.571 8.58287 15.5445 9.18638 15.4134 9.86964C15.2621 10.6556 15.0176 11.3401 14.6873 11.9003C14.3959 12.4021 14.0041 12.8367 13.537 13.1762C13.0983 13.4913 12.577 13.7306 11.9877 13.8837C11.4167 14.0342 10.7656 14.1102 10.0514 14.1102H9.59129C9.26228 14.1102 8.94271 14.2301 8.69185 14.4451C8.44134 14.6624 8.27516 14.9626 8.2229 15.2923L8.18824 15.4831L7.60583 19.2183L7.57936 19.3555C7.57243 19.3989 7.56045 19.4205 7.5428 19.4352C7.52571 19.4494 7.50438 19.4572 7.48229 19.4575H4.64151Z" fill="#253B80"/>
<path d="M14.5877 5.75C14.57 5.8642 14.5498 5.98094 14.5271 6.10088C13.7475 10.1526 11.08 11.5523 7.67321 11.5523H5.93861C5.52198 11.5523 5.1709 11.8585 5.10598 12.2744L4.21788 17.9752L3.96639 19.5912C3.95637 19.6553 3.96019 19.7208 3.9776 19.7833C3.995 19.8458 4.02558 19.9037 4.06721 19.953C4.10884 20.0024 4.16055 20.042 4.21877 20.0692C4.27698 20.0964 4.34033 20.1105 4.40445 20.1105H7.48097C7.84528 20.1105 8.15476 19.8426 8.21212 19.4789L8.24238 19.3207L8.82163 15.6001L8.85881 15.396C8.91554 15.0311 9.22565 14.7631 9.58997 14.7631H10.0501C13.0308 14.7631 15.3642 13.5382 16.0462 9.99372C16.3311 8.51301 16.1836 7.27664 15.4297 6.4071C15.1908 6.13811 14.9055 5.91544 14.5877 5.75V5.75Z" fill="#179BD7"/>
<path d="M13.7716 5.4202C13.5226 5.34731 13.2693 5.29042 13.0133 5.24987C12.5074 5.17117 11.996 5.13341 11.4842 5.13695H6.85016C6.6738 5.13681 6.50322 5.20053 6.36923 5.3166C6.23525 5.43267 6.14672 5.59342 6.11963 5.7698L5.13383 12.0894L5.10547 12.2738C5.13618 12.0726 5.23702 11.8892 5.38974 11.7568C5.54246 11.6243 5.73698 11.5515 5.9381 11.5516H7.67271C11.0795 11.5516 13.747 10.1513 14.5267 6.10027C14.55 5.98033 14.5695 5.86358 14.5872 5.74939C14.3814 5.64019 14.167 5.54864 13.9462 5.4757C13.8883 5.45626 13.83 5.43775 13.7716 5.4202V5.4202Z" fill="#222D65"/>
<path d="M6.11829 5.77006C6.14514 5.59363 6.23363 5.4328 6.36768 5.31679C6.50173 5.20078 6.67244 5.13728 6.84881 5.13784H11.4828C12.0318 5.13784 12.5442 5.1742 13.0119 5.25076C13.3284 5.3011 13.6405 5.37639 13.9454 5.47596C14.1755 5.55315 14.3891 5.64438 14.5864 5.74964C14.8184 4.25235 14.5845 3.23289 13.7847 2.30976C12.9029 1.29349 11.3114 0.858398 9.27485 0.858398H3.36259C2.94659 0.858398 2.59173 1.16462 2.52744 1.58121L0.0648399 17.3803C0.0533695 17.4536 0.0577336 17.5286 0.077632 17.6001C0.0975303 17.6716 0.132491 17.7379 0.180108 17.7944C0.227726 17.8509 0.286871 17.8963 0.353474 17.9274C0.420077 17.9586 0.492559 17.9748 0.565932 17.9749H4.21603L5.13249 12.0897L6.11829 5.77006Z" fill="#253B80"/>
</svg>
