<?xml version="1.0" encoding="UTF-8" standalone="no"?>
<svg viewBox="0 0 33 28" fill="black" xmlns="http://www.w3.org/2000/svg" >
  <path d="m 27.908203,12.21875 v 9.904297 h 1.398438 V 12.21875 Z" />
  <path d="m 5.6445312,6.3046875 c -1.3458955,0 -2.4960937,1.1026893 -2.4960937,2.4960938 V 22.166016 H 4.546875 V 8.8007813 c 0,-0.6223936 0.5153937,-1.0976563 1.0976562,-1.0976563 H 16.6875 V 6.3046875 Z"/>
  <path d="m 1,23.394531 a 0.70006999,0.70006999 0 0 0 -0.68554687,0.84375 c 0,0 0.145116,0.714251 0.55664062,1.447266 0.41152465,0.733014 1.19927155,1.605469 2.40820315,1.605469 H 29.220703 c 1.208907,0 1.996681,-0.87246 2.408203,-1.605469 0.411522,-0.73301 0.556641,-1.447266 0.556641,-1.447266 A 0.70006999,0.70006999 0 0 0 31.5,23.394531 Z m 1.0117188,1.398438 H 30.488281 c -0.04414,0.09887 -0.02301,0.105381 -0.08008,0.207031 -0.289627,0.515889 -0.643608,0.890625 -1.1875,0.890625 H 3.2792969 c -0.5439467,0 -0.8978753,-0.374741 -1.1875,-0.890625 -0.057067,-0.101649 -0.035939,-0.108166 -0.080078,-0.207031 z"/>
  <path d="m 18.878906,1.1757812 a 0.70006999,0.70006999 0 0 0 -0.699219,0.7011719 v 8.1933599 a 0.70006999,0.70006999 0 0 0 0.699219,0.701171 h 2.015625 V 9.3710938 H 19.578125 V 2.5761719 h 6.662109 V 1.1757812 Z"/>
  <path d="m 29.792969,3.9785156 v 5.4355469 h -5.960938 a 0.70006999,0.70006999 0 0 0 -0.564453,0.2871094 l -2.498047,3.4179691 1.128906,0.826172 2.289063,-3.13086 h 6.304687 a 0.70006999,0.70006999 0 0 0 0.701172,-0.699219 V 3.9785156 Z"/>
  <path d="M 30.220703,0.44726563 A 0.69999999,0.69999999 0 0 0 29.238281,0.5703125 L 24.888672,6.1777344 23.431641,4.5625 A 0.69999999,0.69999999 0 0 0 22.443359,4.5117187 0.69999999,0.69999999 0 0 0 22.392578,5.5 l 2.015625,2.2363281 a 0.70006999,0.70006999 0 0 0 1.072266,-0.041016 l 4.865234,-6.265625 a 0.69999999,0.69999999 0 0 0 -0.125,-0.98242187 z"/>
  <path d="m 12.392578,16.689453 c -0.950235,0 -1.854636,0.186587 -2.5683592,0.712891 -0.7137236,0.526303 -1.1542969,1.415294 -1.1542969,2.484375 v 2.279297 h 1.3984371 v -2.279297 c 0,-0.727618 0.217036,-1.085905 0.587891,-1.359375 0.3166,-0.233463 0.873977,-0.332843 1.482422,-0.373047 l 1.794922,1.984375 a 0.70006999,0.70006999 0 0 0 1.052734,-0.01758 l 1.664063,-1.966797 c 0.621157,0.03935 1.20868,0.135162 1.552734,0.371094 0.403778,0.276887 0.632812,0.624411 0.632812,1.361328 v 2.279297 h 1.400391 v -2.279297 c 0,-1.103582 -0.495641,-2.003688 -1.242187,-2.515625 -0.746546,-0.511937 -1.668982,-0.681641 -2.613282,-0.681641 A 0.70006999,0.70006999 0 0 0 15.845703,16.9375 l -1.410156,1.667969 -1.523438,-1.685547 a 0.70006999,0.70006999 0 0 0 -0.519531,-0.230469 z"/>
  <path d="m 14.453125,9.0644531 c -1.687956,0 -3.066406,1.3784319 -3.066406,3.0664059 v 0.876954 c 0,1.673127 1.393278,3.066406 3.066406,3.066406 1.688046,0 3.066406,-1.378468 3.066406,-3.066406 v -0.876954 c 0,-1.703522 -1.409381,-3.0664059 -3.066406,-3.0664059 z m 0,1.4003909 c 0.884573,0 1.666016,0.740341 1.666016,1.666015 v 0.876954 c 0,0.941258 -0.724664,1.666015 -1.666016,1.666015 -0.86847,0 -1.667969,-0.797546 -1.667969,-1.666015 v -0.876954 c 0,-0.941223 0.726728,-1.666015 1.667969,-1.666015 z"/>
</svg>
