<svg width="91" height="17" viewBox="0 0 91 17" fill="none" xmlns="http://www.w3.org/2000/svg">
<path d="M0 0.00390625H17.0643V16.9967H0V0.00390625ZM18.4839 0.00390625H35.5482V16.9967H18.4839V0.00390625ZM36.9678 0.00390625H54.0322V16.9967H36.9678V0.00390625ZM55.4518 0.00390625H72.5161V16.9967H55.4518V0.00390625ZM91 16.9967H73.9357H91ZM91 16.9967H73.9357H91Z" fill="#00B67A"/>
<path d="M91.0009 0H82.4688V16.9964H91.0009V0Z" fill="#DCDCE5"/>
<path d="M82.4677 0.00390625H73.9355V16.9967H82.4677V0.00390625Z" fill="#00B67A"/>
<path d="M8.53183 11.4545L11.1272 10.7984L12.2119 14.1259L8.53183 11.4545ZM14.5014 7.15553H9.93323L8.53183 2.87109L7.12679 7.15553H2.55859L6.25683 9.80884L4.85179 14.0933L8.55003 11.44L10.825 9.81246L14.5014 7.15553ZM27.0158 11.4545L29.6111 10.7984L30.6958 14.1259L27.0158 11.4545ZM32.9853 7.15553H28.4208L27.0158 2.87109L25.6107 7.15553H21.0425L24.7408 9.80884L23.3357 14.0933L27.034 11.44L29.309 9.81246L32.9853 7.15553ZM45.4997 11.4545L48.095 10.7984L49.1797 14.1259L45.4997 11.4545ZM51.4729 7.15553H46.9047L45.4997 2.87109L44.0946 7.15553H39.5264L43.2247 9.80884L41.8196 14.0933L45.5179 11.44L47.7929 9.81246L51.4729 7.15553ZM63.9836 11.4545L66.5789 10.7984L67.6636 14.1259L63.9836 11.4545ZM69.9568 7.15553H65.3886L63.9836 2.87109L62.5785 7.15553H58.0103L61.7086 9.80884L60.3035 14.0933L64.0018 11.44L66.2768 9.81246L69.9568 7.15553ZM82.4675 11.4545L85.0628 10.7984L86.1475 14.1259L82.4675 11.4545ZM88.4407 7.15553H83.8725L82.4675 2.87109L81.0625 7.15553H76.4943L80.1925 9.80884L78.7875 14.0933L82.4857 11.44L84.7607 9.81246L88.4407 7.15553Z" fill="white"/>
</svg>
