<svg viewBox="0 0 24 24" fill="black" xmlns="http://www.w3.org/2000/svg">
    <path d="M12 0.333332C5.56004 0.333332 0.333374 5.56 0.333374 12C0.333374 18.44 5.56004 23.6667 12 23.6667C18.44 23.6667 23.6667 18.44 23.6667 12C23.6667 5.56 18.44 0.333332 12 0.333332ZM8.83837 17.005L4.65004 12.8167C4.19504 12.3617 4.19504 11.6267 4.65004 11.1717C5.10504 10.7167 5.84004 10.7167 6.29504 11.1717L9.66671 14.5317L17.6934 6.505C18.1484 6.05 18.8834 6.05 19.3384 6.505C19.7934 6.96 19.7934 7.695 19.3384 8.15L10.4834 17.005C10.04 17.46 9.29338 17.46 8.83837 17.005Z" />
</svg>