<svg width="31" height="18" viewBox="0 0 31 18" fill="none" xmlns="http://www.w3.org/2000/svg">
<path fill-rule="evenodd" clip-rule="evenodd" d="M21.0313 14.4458C21.0378 13.4774 21.8382 12.6895 22.8156 12.6895C23.7936 12.6895 24.584 13.4774 24.5776 14.4458C24.5711 15.4142 23.7702 16.2021 22.7922 16.2021C21.8147 16.2021 21.0248 15.4142 21.0313 14.4458ZM19.7617 8.04147L19.7802 5.30613C19.7802 5.30613 20.5921 5.23805 21.6249 5.63941C22.6457 6.0362 23.849 7.53444 23.849 7.53444L23.3209 8.24927L19.7617 8.04147ZM7.81254 14.4458C7.81902 13.4774 8.61993 12.6895 9.59738 12.6895C10.5753 12.6895 11.3653 13.4774 11.3588 14.4458C11.3523 15.4142 10.5519 16.2021 9.57394 16.2021C8.59649 16.2021 7.80606 15.4142 7.81254 14.4458ZM29.3115 11.9816C29.5534 10.4407 29.693 8.94746 29.4342 8.69495C28.9774 8.24938 27.6304 7.9608 26.831 7.81601C24.918 5.9504 23.2763 4.53544 22.1602 4.10664C21.636 3.90545 20.8262 3.75811 19.8417 3.67682L19.8652 0.226562H5.95644C5.40674 0.226562 4.96011 0.670248 4.95646 1.21993L4.95557 1.35497H2.68837C2.40778 1.35497 2.18031 1.58244 2.18031 1.86303C2.18031 2.14363 2.40778 2.3711 2.68837 2.3711H11.0566V3.8775H5.93244C5.38277 3.8775 4.93614 4.32115 4.93247 4.87081L4.92914 5.36816H1.7189C1.43831 5.36816 1.21084 5.59563 1.21084 5.87622C1.21084 6.15682 1.43831 6.38428 1.7189 6.38428H9.15262V7.89069H5.90501C5.35534 7.89069 4.90871 8.33434 4.90503 8.884L4.90171 9.38084H0.508064C0.227469 9.38084 0 9.60831 0 9.8889C0 10.1695 0.227468 10.397 0.508063 10.397H7.00672V11.9039H4.88525L4.88176 12.4211C4.88176 12.4211 4.08135 12.9134 4.09182 13.1283C4.10628 13.4144 4.30776 14.6195 4.35264 14.9751C4.37608 15.1595 5.56248 15.4019 6.26266 15.6051C6.79826 16.9749 8.13328 17.9498 9.70717 17.9498C11.0666 17.9498 12.2505 17.2172 12.9083 16.1366H19.5066C20.135 17.2711 21.3378 17.9498 22.7382 17.9498C24.3485 17.9498 25.8166 16.9271 26.3448 15.5071H28.738L30.0601 12.4927L29.3115 11.9816Z" fill="#2B2824"/>
</svg>
