<?xml version="1.0" encoding="UTF-8" standalone="no"?>
<svg width="31" height="31" viewBox="0 0 31 31" fill="black" xmlns="http://www.w3.org/2000/svg">
  <path d="m 29.087891,17.298828 c -0.669389,-0.147952 -1.412869,-0.03919 -2.048829,0.320313 l -5.240234,2.662109 0.632813,1.248047 5.267578,-2.675781 a 0.70006999,0.70006999 0 0 0 0.02734,-0.01563 c 0.71428,-0.403783 1.425556,-0.254358 1.707032,0.308593 a 0.70006999,0.70006999 0 0 0 0.0059,0.01172 c 0.275361,0.525789 0.01865,1.339329 -0.652344,1.689453 a 0.70006999,0.70006999 0 0 0 -0.0078,0.002 l -10.798828,5.785157 -0.402344,0.09375 -10.1210938,0.300781 a 0.70006999,0.70006999 0 0 0 -0.1601562,0.02344 c 0,0 -0.4433252,0.125408 -1.0273438,0.47461 -0.5840185,0.349201 -1.3646484,0.937764 -2.2109375,1.898437 L 5.109375,30.349609 C 5.8607444,29.496685 6.5251858,29.005414 6.9882812,28.728516 7.4231103,28.468519 7.5934581,28.429847 7.6171875,28.423828 L 17.6875,28.126953 a 0.70006999,0.70006999 0 0 0 0.136719,-0.01953 l 0.5625,-0.128906 a 0.70006999,0.70006999 0 0 0 0.171875,-0.06445 l 10.875,-5.826171 c 1.312665,-0.68495 1.914299,-2.285724 1.246093,-3.572266 -0.3349,-0.664351 -0.924748,-1.069362 -1.591796,-1.216797 z"/>
  <path d="m 8.9472656,18.685547 c -1.0600596,-0.02023 -2.4404857,0.174786 -3.71875,1.035156 L 5.1855469,19.75 0.52734375,24.017578 1.4726562,25.048828 6.0332031,20.873047 C 7.9636454,19.590362 10.337891,20.28125 10.337891,20.28125 l 0.01172,0.002 0.01367,0.0039 c 1.476845,0.39378 3.867188,0.455078 3.867188,0.455078 h 0.01367 3.984375 c 0.875654,0 1.458984,0.592677 1.458984,1.201172 0,0.589087 -0.638752,1.199219 -1.458984,1.199219 h -5.527344 v 1.400391 h 5.527344 c 1.511565,0 2.859375,-1.116098 2.859375,-2.59961 0,-1.464102 -1.317033,-2.599609 -2.859375,-2.599609 H 14.28125 c 0,0 -2.444641,-0.111184 -3.558594,-0.408203 l 0.02539,0.0059 c 0,0 -0.740722,-0.235634 -1.8007814,-0.255859 z"/>
  <path d="M 15.464844,0.30078125 A 0.69999999,0.69999999 0 0 0 14.765625,1 0.69999999,0.69999999 0 0 0 15.464844,1.6992187 h 1.691406 l 0.251953,1.5703126 a 0.70006999,0.70006999 0 0 0 0.533203,0.5722656 c 0.494969,0.1142113 0.989209,0.3054659 1.38086,0.5546875 a 0.70006999,0.70006999 0 0 0 0.779296,-0.017578 l 1.289063,-0.9121093 0.804687,0.8066406 -0.910156,1.2871094 a 0.70006999,0.70006999 0 0 0 -0.01953,0.78125 c 0.249168,0.3916188 0.442364,0.8839351 0.556641,1.3789062 a 0.70006999,0.70006999 0 0 0 0.570312,0.5332032 l 1.570313,0.2519531 v 1.09375 l -1.570313,0.2519531 a 0.70006999,0.70006999 0 0 0 -0.570312,0.5332035 c -0.114275,0.494927 -0.307451,0.989181 -0.556641,1.380859 a 0.70006999,0.70006999 0 0 0 0.02539,0.789063 l 0.941406,1.285156 -0.792969,0.792969 -1.285156,-0.941407 a 0.70006999,0.70006999 0 0 0 -0.726563,-0.06055 c -0.518199,0.2591 -0.989394,0.487061 -1.443359,0.591797 a 0.70006999,0.70006999 0 0 0 -0.53125,0.556641 l -0.285156,1.583984 h -1.117188 l -0.285156,-1.583984 a 0.70006999,0.70006999 0 0 0 -0.53125,-0.556641 c -0.49486,-0.114171 -0.987459,-0.307462 -1.378906,-0.55664 a 0.70006999,0.70006999 0 0 0 -0.789063,0.02539 l -1.287109,0.941407 -0.792969,-0.792969 0.941406,-1.285156 a 0.70006999,0.70006999 0 0 0 0.0625,-0.726563 c -0.259015,-0.518132 -0.48696,-0.98931 -0.591796,-1.443359 A 0.70006999,0.70006999 0 0 0 10.839844,9.8535156 L 9.2558594,9.5683594 V 8.4511719 L 10.839844,8.1660156 a 0.70006999,0.70006999 0 0 0 0.558594,-0.53125 c 0.114277,-0.4949711 0.305515,-0.9872727 0.554687,-1.3789062 a 0.70006999,0.70006999 0 0 0 -0.01758,-0.78125 L 11.023438,4.1875 l 0.80664,-0.8066406 1.28711,0.9101562 a 0.70006999,0.70006999 0 0 0 0.78125,0.019531 C 14.29005,4.0613492 14.78245,3.8681207 15.277344,3.7539063 A 0.69999999,0.69999999 0 0 0 15.802734,2.9160156 0.69999999,0.69999999 0 0 0 14.962891,2.390625 C 14.499833,2.4974921 14.05893,2.7173124 13.623047,2.9355469 L 12.15625,1.8964844 a 0.70006999,0.70006999 0 0 0 -0.898437,0.076172 L 9.6152344,3.6132813 a 0.70006999,0.70006999 0 0 0 -0.076172,0.9003906 l 1.0390625,1.46875 C 10.436377,6.2658675 10.316053,6.55422 10.222656,6.8535156 L 8.4335938,7.1757812 A 0.70006999,0.70006999 0 0 0 7.8574219,7.8652344 v 2.2890626 a 0.70006999,0.70006999 0 0 0 0.5742187,0.689453 l 1.7871094,0.322266 c 0.107032,0.308212 0.219724,0.601854 0.351563,0.873047 l -1.0664067,1.458984 a 0.70006999,0.70006999 0 0 0 0.068359,0.908203 l 1.6406254,1.640625 a 0.70006999,0.70006999 0 0 0 0.910156,0.07031 l 1.464844,-1.072265 c 0.282209,0.140741 0.569355,0.258732 0.867187,0.351562 l 0.322266,1.791016 a 0.70006999,0.70006999 0 0 0 0.6875,0.576172 h 2.289062 A 0.70006999,0.70006999 0 0 0 18.443359,17.1875 l 0.322266,-1.787109 c 0.308249,-0.107016 0.601805,-0.219687 0.873047,-0.351563 l 1.458984,1.068359 a 0.70006999,0.70006999 0 0 0 0.908203,-0.07031 l 1.640625,-1.640625 a 0.70006999,0.70006999 0 0 0 0.07031,-0.908203 L 22.644531,12.03125 c 0.139322,-0.279489 0.257241,-0.562547 0.34961,-0.857422 l 1.779296,-0.285156 a 0.70006999,0.70006999 0 0 0 0.589844,-0.691406 V 7.9082031 A 0.70006999,0.70006999 0 0 0 24.773437,7.2167969 L 22.994141,6.9335937 C 22.900833,6.6356238 22.781898,6.3485848 22.640625,6.0664062 L 23.679687,4.5996094 A 0.70006999,0.70006999 0 0 0 23.603516,3.7011719 L 21.962891,2.0585938 A 0.70006999,0.70006999 0 0 0 21.0625,1.9824219 L 19.59375,3.0214844 C 19.312914,2.8810263 19.026959,2.7628687 18.730469,2.6699219 L 18.445312,0.88867188 A 0.70006999,0.70006999 0 0 0 17.753906,0.30078125 Z"/>
  <path d="m 16.630859,5.9140625 c -0.309211,0 -0.543835,0.059939 -0.742187,0.099609 a 0.69999999,0.69999999 0 0 0 -0.548828,0.8222656 0.69999999,0.69999999 0 0 0 0.824218,0.5507812 C 16.397509,7.3400294 16.508271,7.3125 16.630859,7.3125 c 0.922066,0 1.675782,0.7135463 1.675782,1.6757813 0,0.9220626 -0.713649,1.6757807 -1.675782,1.6757817 -0.922073,0 -1.675781,-0.7134955 -1.675781,-1.6757817 0,-0.1227395 0.03106,-0.2940697 0.07422,-0.5097657 A 0.69999999,0.69999999 0 0 0 14.480469,7.6542969 0.69999999,0.69999999 0 0 0 13.65625,8.203125 c -0.04324,0.2161036 -0.09961,0.4760961 -0.09961,0.7851563 0,1.7149507 1.405494,3.0742187 3.074218,3.0742187 1.714865,0 3.074219,-1.405444 3.074219,-3.0742187 0,-1.7149224 -1.405487,-3.0742188 -3.074219,-3.0742188 z"/>
</svg>
