<svg width="21" height="21" viewBox="0 0 21 21" fill="none" xmlns="http://www.w3.org/2000/svg">
<path d="M10.5 6C8.01375 6 6 8.01375 6 10.5C6 12.9862 8.01375 15 10.5 15C12.9862 15 15 12.9862 15 10.5C15 8.01375 12.9862 6 10.5 6ZM1.5 13.875C0.88125 13.875 0.375 14.3813 0.375 15V18.375C0.375 19.6125 1.3875 20.625 2.625 20.625H6C6.61875 20.625 7.125 20.1187 7.125 19.5C7.125 18.8813 6.61875 18.375 6 18.375H3.75C3.13125 18.375 2.625 17.8687 2.625 17.25V15C2.625 14.3813 2.11875 13.875 1.5 13.875ZM2.625 3.75C2.625 3.13125 3.13125 2.625 3.75 2.625H6C6.61875 2.625 7.125 2.11875 7.125 1.5C7.125 0.88125 6.61875 0.375 6 0.375H2.625C1.3875 0.375 0.375 1.3875 0.375 2.625V6C0.375 6.61875 0.88125 7.125 1.5 7.125C2.11875 7.125 2.625 6.61875 2.625 6V3.75ZM18.375 0.375H15C14.3813 0.375 13.875 0.88125 13.875 1.5C13.875 2.11875 14.3813 2.625 15 2.625H17.25C17.8687 2.625 18.375 3.13125 18.375 3.75V6C18.375 6.61875 18.8813 7.125 19.5 7.125C20.1187 7.125 20.625 6.61875 20.625 6V2.625C20.625 1.3875 19.6125 0.375 18.375 0.375ZM18.375 17.25C18.375 17.8687 17.8687 18.375 17.25 18.375H15C14.3813 18.375 13.875 18.8813 13.875 19.5C13.875 20.1187 14.3813 20.625 15 20.625H18.375C19.6125 20.625 20.625 19.6125 20.625 18.375V15C20.625 14.3813 20.1187 13.875 19.5 13.875C18.8813 13.875 18.375 14.3813 18.375 15V17.25Z" fill="#2B2824"/>
</svg>
