<svg width="41" height="14" viewBox="0 0 41 14" fill="none" xmlns="http://www.w3.org/2000/svg">
<g clip-path="url(#clip0_1540_871)">
<path d="M17.5842 13.7328H14.4736L16.4177 1.35592H19.5286L17.5842 13.7328ZM11.8569 1.35592L8.89139 9.86884L8.54048 8.03568L8.5408 8.03635L7.49415 2.47032C7.49415 2.47032 7.36759 1.35592 6.01861 1.35592H1.11612L1.05859 1.56549C1.05859 1.56549 2.55778 1.88862 4.31233 2.98017L7.01477 13.7331H10.2557L15.2045 1.35592H11.8569ZM36.323 13.7328H39.1791L36.6889 1.35559H34.1884C33.0338 1.35559 32.7525 2.27797 32.7525 2.27797L28.1134 13.7328H31.3559L32.0044 11.8944H35.9586L36.323 13.7328ZM32.9002 9.35469L34.5345 4.72295L35.454 9.35469H32.9002ZM28.3566 4.33228L28.8005 1.67442C28.8005 1.67442 27.4307 1.13477 26.0028 1.13477C24.4592 1.13477 20.7935 1.83366 20.7935 5.23214C20.7935 8.42966 25.0958 8.46939 25.0958 10.1489C25.0958 11.8285 21.2368 11.5275 19.9632 10.4684L19.5008 13.2475C19.5008 13.2475 20.8897 13.9464 23.0118 13.9464C25.1345 13.9464 28.3368 12.8078 28.3368 9.70893C28.3368 6.49089 23.9958 6.19127 23.9958 4.79215C23.9961 3.39269 27.0255 3.57247 28.3566 4.33228Z" fill="#2566AF"/>
<path d="M8.5408 8.03589L7.49415 2.46987C7.49415 2.46987 7.36759 1.35547 6.01861 1.35547H1.11612L1.05859 1.56504C1.05859 1.56504 3.41492 2.07092 5.67505 3.96632C7.83611 5.77796 8.5408 8.03589 8.5408 8.03589Z" fill="#E6A540"/>
</g>
<defs>
<clipPath id="clip0_1540_871">
<rect width="40.0895" height="13.4839" fill="white" transform="translate(0.0742188 0.257812)"/>
</clipPath>
</defs>
</svg>
