<svg width="26" height="33" viewBox="0 0 26 33" fill="none" xmlns="http://www.w3.org/2000/svg">
<g clip-path="url(#clip0_1540_834)">
<path d="M8.9375 1.625C8.72201 1.625 8.51535 1.7106 8.36298 1.86298C8.2106 2.01535 8.125 2.22201 8.125 2.4375V4.0625C8.125 4.27799 8.2106 4.48465 8.36298 4.63702C8.51535 4.7894 8.72201 4.875 8.9375 4.875C9.15299 4.875 9.35965 4.7894 9.51203 4.63702C9.6644 4.48465 9.75 4.27799 9.75 4.0625V2.4375C9.75 2.22201 9.6644 2.01535 9.51203 1.86298C9.35965 1.7106 9.15299 1.625 8.9375 1.625Z" fill="#2B2824"/>
<path d="M15.2013 2.67393C15.1258 2.59778 15.0359 2.53733 14.9369 2.49608C14.8379 2.45483 14.7317 2.43359 14.6244 2.43359C14.5172 2.43359 14.411 2.45483 14.3119 2.49608C14.2129 2.53733 14.1231 2.59778 14.0475 2.67393L12.4225 4.29893C12.2695 4.45193 12.1836 4.65943 12.1836 4.8758C12.1836 4.98294 12.2047 5.08903 12.2457 5.18801C12.2867 5.28699 12.3468 5.37692 12.4225 5.45268C12.4983 5.52843 12.5882 5.58853 12.6872 5.62953C12.7862 5.67053 12.8923 5.69163 12.9994 5.69163C13.2158 5.69163 13.4233 5.60568 13.5763 5.45268L15.2013 3.82768C15.2774 3.75215 15.3379 3.66228 15.3791 3.56327C15.4204 3.46426 15.4416 3.35806 15.4416 3.2508C15.4416 3.14354 15.4204 3.03735 15.3791 2.93834C15.3379 2.83933 15.2774 2.74946 15.2013 2.67393Z" fill="#2B2824"/>
<path d="M4.29754 12.4235L2.67254 14.0485C2.51955 14.2015 2.43359 14.409 2.43359 14.6254C2.43359 14.8418 2.51955 15.0493 2.67254 15.2023C2.82554 15.3553 3.03305 15.4412 3.24942 15.4412C3.46579 15.4412 3.6733 15.3553 3.82629 15.2023L5.45129 13.5773C5.60429 13.4243 5.69024 13.2168 5.69024 13.0004C5.69024 12.784 5.60429 12.5765 5.45129 12.4235C5.2983 12.2705 5.09079 12.1846 4.87442 12.1846C4.65805 12.1846 4.45054 12.2705 4.29754 12.4235Z" fill="#2B2824"/>
<path d="M4.0625 9.75C4.27799 9.75 4.48465 9.6644 4.63703 9.51202C4.7894 9.35965 4.875 9.15299 4.875 8.9375C4.875 8.72201 4.7894 8.51535 4.63703 8.36298C4.48465 8.2106 4.27799 8.125 4.0625 8.125H2.4375C2.22201 8.125 2.01535 8.2106 1.86298 8.36298C1.7106 8.51535 1.625 8.72201 1.625 8.9375C1.625 9.15299 1.7106 9.35965 1.86298 9.51202C2.01535 9.6644 2.22201 9.75 2.4375 9.75H4.0625Z" fill="#2B2824"/>
<path d="M4.63879 3.48602C4.4858 3.33302 4.27829 3.24707 4.06192 3.24707C3.84555 3.24707 3.63804 3.33302 3.48504 3.48602C3.33205 3.63902 3.24609 3.84652 3.24609 4.06289C3.24609 4.27926 3.33205 4.48677 3.48504 4.63977L5.11004 6.26477C5.26304 6.41777 5.47055 6.50372 5.68692 6.50372C5.90329 6.50372 6.1108 6.41777 6.26379 6.26477C6.41679 6.11177 6.50274 5.90426 6.50274 5.68789C6.50274 5.47152 6.41679 5.26402 6.26379 5.11102L4.63879 3.48602Z" fill="#2B2824"/>
<path d="M24.1393 19.7355L11.708 7.31238C11.4035 7.00972 10.9917 6.83984 10.5624 6.83984C10.1331 6.83984 9.72122 7.00972 9.41676 7.31238L7.31238 9.41676C7.00972 9.72122 6.83984 10.1331 6.83984 10.5624C6.83984 10.9917 7.00972 11.4035 7.31238 11.708L19.7355 24.1393C19.811 24.2154 19.9009 24.2759 19.9999 24.3171C20.0989 24.3584 20.2051 24.3796 20.3124 24.3796C20.4196 24.3796 20.5258 24.3584 20.6249 24.3171C20.7239 24.2759 20.8137 24.2154 20.8893 24.1393L24.1393 20.8893C24.2154 20.8137 24.2759 20.7239 24.3171 20.6249C24.3584 20.5258 24.3796 20.4196 24.3796 20.3124C24.3796 20.2051 24.3584 20.0989 24.3171 19.9999C24.2759 19.9009 24.2154 19.811 24.1393 19.7355ZM8.45801 10.5624L10.5624 8.45801L13.4793 11.3749L11.3749 13.4793L8.45801 10.5624Z" fill="#2B2824"/>
</g>
<defs>
<clipPath id="clip0_1540_834">
<rect width="26" height="32.5" fill="white"/>
</clipPath>
</defs>
</svg>
